<svg width="16" height="16" viewBox="0 0 16 16" fill="none" xmlns="http://www.w3.org/2000/svg">
<path fill-rule="evenodd" clip-rule="evenodd" d="M7.96179 0.833344H8.03829C9.57722 0.833335 10.7832 0.833328 11.7242 0.959841C12.6874 1.08933 13.4474 1.35956 14.044 1.9561C14.5727 2.48487 14.8458 3.14298 14.9911 3.95933C15.1338 4.76127 15.1599 5.75897 15.1653 6.99782C15.1665 7.27396 14.9437 7.49879 14.6675 7.50001C14.3914 7.50122 14.1665 7.27834 14.1653 7.0022C14.1599 5.75319 14.1319 4.83909 14.0065 4.1345C13.8837 3.44433 13.6748 3.0012 13.3368 2.66321C12.9571 2.28344 12.4433 2.06551 11.591 1.95092C10.7243 1.83441 9.58552 1.83334 8.00004 1.83334C6.41456 1.83334 5.27574 1.83441 4.40909 1.95092C3.55682 2.06551 3.04301 2.28344 2.66324 2.66321C2.28347 3.04298 2.06554 3.55679 1.95095 4.40906C1.83444 5.27571 1.83337 6.41453 1.83337 8.00001C1.83337 9.58549 1.83444 10.7243 1.95095 11.591C2.06554 12.4432 2.28347 12.957 2.66324 13.3368C2.98622 13.6598 3.40466 13.8644 4.04123 13.9891C4.69177 14.1165 5.53151 14.1536 6.67095 14.1632C6.94708 14.1656 7.16903 14.3913 7.16669 14.6674C7.16435 14.9436 6.9386 15.1655 6.66247 15.1632C5.52649 15.1535 4.60132 15.1178 3.84901 14.9704C3.08273 14.8203 2.46036 14.5481 1.95613 14.0439C1.35959 13.4474 1.08936 12.6874 0.959872 11.7242C0.833359 10.7832 0.833366 9.57719 0.833374 8.03826V7.96176C0.833366 6.42283 0.833359 5.21681 0.959872 4.27581C1.08936 3.31266 1.35959 2.55264 1.95613 1.9561C2.55267 1.35956 3.31269 1.08933 4.27584 0.959841C5.21684 0.833328 6.42286 0.833335 7.96179 0.833344Z" fill="url(#paint0_linear_4640_201)"/>
<path fill-rule="evenodd" clip-rule="evenodd" d="M1.16663 5.33334C1.16663 5.0572 1.39048 4.83334 1.66663 4.83334H14.3333C14.6094 4.83334 14.8333 5.0572 14.8333 5.33334C14.8333 5.60949 14.6094 5.83334 14.3333 5.83334H1.66663C1.39048 5.83334 1.16663 5.60949 1.16663 5.33334Z" fill="url(#paint1_linear_4640_201)"/>
<path fill-rule="evenodd" clip-rule="evenodd" d="M7.26846 1.24483C7.50143 1.39308 7.57011 1.70213 7.42185 1.9351L5.08852 5.60176C4.94027 5.83473 4.63122 5.90341 4.39825 5.75516C4.16528 5.6069 4.0966 5.29786 4.24486 5.06489L6.57819 1.39822C6.72645 1.16525 7.03549 1.09657 7.26846 1.24483Z" fill="url(#paint2_linear_4640_201)"/>
<path fill-rule="evenodd" clip-rule="evenodd" d="M11.6017 1.24483C11.8347 1.39308 11.9034 1.70213 11.7551 1.9351L9.42177 5.60176C9.27352 5.83473 8.96447 5.90341 8.7315 5.75516C8.49853 5.6069 8.42986 5.29786 8.57811 5.06489L10.9114 1.39822C11.0597 1.16525 11.3687 1.09657 11.6017 1.24483Z" fill="url(#paint3_linear_4640_201)"/>
<path fill-rule="evenodd" clip-rule="evenodd" d="M12.2992 8.65864C12.9551 8.00266 14.0187 8.00266 14.6747 8.65864C15.3306 9.31461 15.3306 10.3782 14.6747 11.0341L11.8402 13.8686C11.8334 13.8754 11.8267 13.8821 11.8201 13.8887C11.6662 14.0426 11.5591 14.1498 11.439 14.2434C11.2978 14.3536 11.1449 14.4481 10.9832 14.5251C10.8457 14.5907 10.702 14.6385 10.4955 14.7073C10.4866 14.7103 10.4776 14.7133 10.4685 14.7163L9.48413 15.0445L9.2435 15.1247C8.94952 15.2227 8.6254 15.1461 8.40628 14.927C8.18715 14.7079 8.11064 14.3838 8.20863 14.0898L8.61697 12.8648C8.62 12.8557 8.623 12.8467 8.62596 12.8378C8.69476 12.6313 8.74264 12.4876 8.80818 12.3501C8.88524 12.1884 8.97969 12.0355 9.08985 11.8943C9.18354 11.7742 9.29068 11.6671 9.44461 11.5132C9.45123 11.5066 9.45794 11.4999 9.46473 11.4931L12.2992 8.65864ZM13.9676 9.36574C13.7021 9.10029 13.2717 9.10029 13.0063 9.36574L12.9185 9.45355C12.9219 9.46438 12.9256 9.47553 12.9296 9.48698C12.9841 9.64408 13.0876 9.85226 13.2843 10.049C13.481 10.2457 13.6892 10.3492 13.8463 10.4037C13.8578 10.4077 13.8689 10.4114 13.8797 10.4148L13.9676 10.327C14.233 10.0616 14.233 9.63119 13.9676 9.36574ZM13.1238 11.1708C12.9462 11.0712 12.7581 10.9369 12.5772 10.7561C12.3964 10.5752 12.2621 10.3871 12.1625 10.2095L10.1718 12.2002C9.99036 12.3817 9.92956 12.4437 9.87836 12.5093C9.81287 12.5933 9.75672 12.6841 9.7109 12.7803C9.6751 12.8554 9.64681 12.9375 9.56565 13.181L9.33524 13.8722L9.46106 13.9981L10.1523 13.7676C10.3958 13.6865 10.4779 13.6582 10.553 13.6224C10.6492 13.5766 10.74 13.5204 10.824 13.4549C10.8896 13.4037 10.9516 13.3429 11.1331 13.1615L13.1238 11.1708Z" fill="url(#paint4_linear_4640_201)"/>
<defs>
<linearGradient id="paint0_linear_4640_201" x1="0.833374" y1="7.99827" x2="15.1653" y2="7.99827" gradientUnits="userSpaceOnUse">
<stop stop-color="#4FA800"/>
<stop offset="1" stop-color="#00844E"/>
</linearGradient>
<linearGradient id="paint1_linear_4640_201" x1="1.16663" y1="5.33334" x2="14.8333" y2="5.33334" gradientUnits="userSpaceOnUse">
<stop stop-color="#4FA800"/>
<stop offset="1" stop-color="#00844E"/>
</linearGradient>
<linearGradient id="paint2_linear_4640_201" x1="4.16663" y1="3.49999" x2="7.50009" y2="3.49999" gradientUnits="userSpaceOnUse">
<stop stop-color="#4FA800"/>
<stop offset="1" stop-color="#00844E"/>
</linearGradient>
<linearGradient id="paint3_linear_4640_201" x1="8.49988" y1="3.49999" x2="11.8333" y2="3.49999" gradientUnits="userSpaceOnUse">
<stop stop-color="#4FA800"/>
<stop offset="1" stop-color="#00844E"/>
</linearGradient>
<linearGradient id="paint4_linear_4640_201" x1="8.16663" y1="11.6667" x2="15.1666" y2="11.6667" gradientUnits="userSpaceOnUse">
<stop stop-color="#4FA800"/>
<stop offset="1" stop-color="#00844E"/>
</linearGradient>
</defs>
</svg>
