<svg width="43" height="44" viewBox="0 0 43 44" fill="none" xmlns="http://www.w3.org/2000/svg">
<rect width="43" height="44" rx="21.5" fill="#E8E8E8"/>
<path fill-rule="evenodd" clip-rule="evenodd" d="M18.8219 22.0002C18.8219 21.5484 19.1882 21.1821 19.6401 21.1821L29.6811 21.1821C30.133 21.1821 30.4993 21.5484 30.4993 22.0002C30.4993 22.4521 30.133 22.8184 29.6811 22.8184L19.6401 22.8184C19.1882 22.8184 18.8219 22.4521 18.8219 22.0002Z" fill="#888888"/>
<path fill-rule="evenodd" clip-rule="evenodd" d="M12.5 22.0002C12.5 21.5484 12.8663 21.1821 13.3182 21.1821L15.9214 21.1821C16.3733 21.1821 16.7396 21.5484 16.7396 22.0002C16.7396 22.4521 16.3733 22.8184 15.9214 22.8184L13.3182 22.8184C12.8663 22.8184 12.5 22.4521 12.5 22.0002Z" fill="#888888"/>
<path fill-rule="evenodd" clip-rule="evenodd" d="M16.7401 22.0003C16.7401 22.4968 17.1716 22.9607 17.7814 22.9607C18.3911 22.9607 18.8227 22.4968 18.8227 22.0003C18.8227 21.5037 18.3911 21.0398 17.7814 21.0398C17.1716 21.0398 16.7401 21.5037 16.7401 22.0003ZM17.7814 24.597C16.3372 24.597 15.1038 23.4683 15.1038 22.0003C15.1038 20.5322 16.3372 19.4035 17.7814 19.4035C19.2255 19.4035 20.459 20.5322 20.459 22.0003C20.459 23.4683 19.2255 24.597 17.7814 24.597Z" fill="#888888"/>
<path fill-rule="evenodd" clip-rule="evenodd" d="M26.2606 15.5973C26.2606 15.1454 26.6269 14.7791 27.0788 14.7791L29.682 14.779C30.1339 14.779 30.5002 15.1453 30.5002 15.5972C30.5002 16.049 30.1339 16.4153 29.6821 16.4154L27.0788 16.4154C26.6269 16.4154 26.2606 16.0492 26.2606 15.5973Z" fill="#888888"/>
<path fill-rule="evenodd" clip-rule="evenodd" d="M12.5 15.5972C12.5 15.1453 12.8663 14.779 13.3182 14.779L23.3593 14.7791C23.8111 14.7791 24.1774 15.1454 24.1774 15.5973C24.1774 16.0491 23.8111 16.4154 23.3592 16.4154L13.3182 16.4154C12.8663 16.4154 12.5 16.049 12.5 15.5972Z" fill="#888888"/>
<path fill-rule="evenodd" clip-rule="evenodd" d="M24.1771 15.5972C24.1771 16.0937 24.6086 16.5576 25.2184 16.5576C25.8281 16.5576 26.2597 16.0937 26.2597 15.5972C26.2597 15.1006 25.8281 14.6367 25.2184 14.6367C24.6086 14.6367 24.1771 15.1006 24.1771 15.5972ZM25.2184 18.1939C23.7742 18.1939 22.5408 17.0652 22.5408 15.5972C22.5408 14.1291 23.7742 13.0004 25.2184 13.0004C26.6625 13.0004 27.896 14.1291 27.896 15.5972C27.896 17.0652 26.6625 18.1939 25.2184 18.1939Z" fill="#888888"/>
<path fill-rule="evenodd" clip-rule="evenodd" d="M23.285 28.4033C23.285 27.9514 23.6513 27.5851 24.1032 27.5851L29.6816 27.5852C30.1334 27.5852 30.4997 27.9515 30.4997 28.4033C30.4997 28.8552 30.1334 29.2215 29.6816 29.2215L24.1032 29.2214C23.6513 29.2214 23.285 28.8551 23.285 28.4033Z" fill="#888888"/>
<path fill-rule="evenodd" clip-rule="evenodd" d="M12.5 28.4033C12.5 27.9515 12.8663 27.5852 13.3182 27.5852L20.3841 27.5851C20.836 27.5851 21.2023 27.9514 21.2023 28.4033C21.2023 28.8551 20.836 29.2214 20.3841 29.2214L13.3182 29.2215C12.8663 29.2215 12.5 28.8552 12.5 28.4033Z" fill="#888888"/>
<path fill-rule="evenodd" clip-rule="evenodd" d="M21.2026 28.4032C21.2026 28.8998 21.6342 29.3637 22.2439 29.3637C22.8537 29.3637 23.2852 28.8998 23.2852 28.4032C23.2852 27.9067 22.8537 27.4428 22.2439 27.4428C21.6342 27.4428 21.2026 27.9067 21.2026 28.4032ZM22.2439 31C20.7998 31 19.5663 29.8713 19.5663 28.4032C19.5663 26.9352 20.7998 25.8064 22.2439 25.8064C23.6881 25.8064 24.9215 26.9352 24.9215 28.4032C24.9215 29.8713 23.6881 31 22.2439 31Z" fill="#888888"/>
<rect x="23" width="20" height="20" rx="10" fill="url(#paint0_linear_4640_1239)"/>
<path d="M29.6179 12.8807V11.6236L33.321 5.77273H34.3693V7.5625H33.7301L31.2372 11.5128V11.581H36.4062V12.8807H29.6179ZM33.7812 14.5V12.4972L33.7983 11.9347V5.77273H35.2898V14.5H33.7812Z" fill="white"/>
<defs>
<linearGradient id="paint0_linear_4640_1239" x1="23" y1="10" x2="43" y2="10" gradientUnits="userSpaceOnUse">
<stop stop-color="#4FA800"/>
<stop offset="1" stop-color="#00844E"/>
</linearGradient>
</defs>
</svg>
