<svg width="32" height="32" viewBox="0 0 32 32" fill="none" xmlns="http://www.w3.org/2000/svg">
<rect width="32" height="32" rx="16" fill="url(#paint0_linear_4676_1367)"/>
<path d="M14.9072 11.0469V21H13.1914L8.72754 13.8701V21H7.01172V11.0469H8.72754L13.2051 18.1904V11.0469H14.9072ZM23.5301 17.7598H25.2391C25.1844 18.4115 25.0021 18.9925 24.6922 19.5029C24.3823 20.0088 23.9471 20.4076 23.3865 20.6992C22.826 20.9909 22.1447 21.1367 21.3426 21.1367C20.7273 21.1367 20.1736 21.0273 19.6814 20.8086C19.1893 20.5853 18.7677 20.2708 18.4168 19.8652C18.0659 19.4551 17.797 18.9606 17.6102 18.3818C17.4279 17.8031 17.3367 17.1559 17.3367 16.4404V15.6133C17.3367 14.8978 17.4301 14.2507 17.617 13.6719C17.8084 13.0931 18.0818 12.5986 18.4373 12.1885C18.7928 11.7738 19.2189 11.457 19.7156 11.2383C20.2169 11.0195 20.7798 10.9102 21.4041 10.9102C22.1971 10.9102 22.867 11.056 23.4139 11.3477C23.9607 11.6393 24.3846 12.0426 24.6854 12.5576C24.9907 13.0726 25.1775 13.6628 25.2459 14.3281H23.5369C23.4913 13.8997 23.3911 13.5329 23.2361 13.2275C23.0857 12.9222 22.8624 12.6898 22.5662 12.5303C22.27 12.3662 21.8826 12.2842 21.4041 12.2842C21.0122 12.2842 20.6704 12.3571 20.3787 12.5029C20.087 12.6488 19.8432 12.863 19.6473 13.1455C19.4513 13.4281 19.3032 13.7767 19.2029 14.1914C19.1072 14.6016 19.0594 15.071 19.0594 15.5996V16.4404C19.0594 16.9417 19.1027 17.3975 19.1893 17.8076C19.2804 18.2132 19.4171 18.5618 19.5994 18.8535C19.7863 19.1452 20.0232 19.3708 20.3104 19.5303C20.5975 19.6898 20.9415 19.7695 21.3426 19.7695C21.8302 19.7695 22.2244 19.6921 22.5252 19.5371C22.8305 19.3822 23.0607 19.1566 23.2156 18.8604C23.3751 18.5596 23.4799 18.1927 23.5301 17.7598Z" fill="white"/>
<defs>
<linearGradient id="paint0_linear_4676_1367" x1="1.19209e-07" y1="16" x2="32" y2="16" gradientUnits="userSpaceOnUse">
<stop stop-color="#4FA800"/>
<stop offset="1" stop-color="#00844E"/>
</linearGradient>
</defs>
</svg>
