<svg width="32" height="32" viewBox="0 0 32 32" fill="none" xmlns="http://www.w3.org/2000/svg">
<rect width="32" height="32" rx="16" fill="white"/>
<path d="M21.0059 19.0769L22.6597 20.7308V21.5385H9.50586V20.7308L11.1597 19.0769V15C11.1597 13.7179 11.4802 12.6026 12.1212 11.6538C12.7879 10.7051 13.6982 10.0897 14.852 9.80769V9.23077C14.852 8.89744 14.9674 8.61538 15.1982 8.38462C15.4289 8.12821 15.7238 8 16.0828 8C16.4418 8 16.7366 8.12821 16.9674 8.38462C17.1982 8.61538 17.3136 8.89744 17.3136 9.23077V9.80769C18.4674 10.0897 19.3648 10.7051 20.0059 11.6538C20.6725 12.6026 21.0059 13.7179 21.0059 15V19.0769ZM16.0828 24C15.6212 24 15.2238 23.8462 14.8905 23.5385C14.5828 23.2308 14.4289 22.8462 14.4289 22.3846H17.7366C17.7366 22.8205 17.57 23.2051 17.2366 23.5385C16.9033 23.8462 16.5187 24 16.0828 24Z" fill="#888888"/>
<circle cx="22.0046" cy="13.6" r="3.5" fill="url(#paint0_linear_4640_1362)" stroke="white"/>
<defs>
<linearGradient id="paint0_linear_4640_1362" x1="18.0046" y1="13.6" x2="26.0046" y2="13.6" gradientUnits="userSpaceOnUse">
<stop stop-color="#4FA800"/>
<stop offset="1" stop-color="#00844E"/>
</linearGradient>
</defs>
</svg>
