<svg width="36" height="48" viewBox="0 0 36 48" fill="none" xmlns="http://www.w3.org/2000/svg">
<rect y="6" width="36" height="36" rx="18" fill="#D8D8D8"/>
<path d="M8 24C8 19.286 8 16.9289 9.46447 15.4645C10.9289 14 13.286 14 18 14C22.714 14 25.0711 14 26.5355 15.4645C28 16.9289 28 19.286 28 24C28 28.714 28 31.0711 26.5355 32.5355C25.0711 34 22.714 34 18 34C13.286 34 10.9289 34 9.46447 32.5355C8 31.0711 8 28.714 8 24Z" fill="url(#paint0_linear_4604_737)"/>
<path d="M23.5762 22.4802C23.8414 22.1619 23.7984 21.689 23.4802 21.4239C23.1619 21.1587 22.689 21.2017 22.4239 21.5199L20.627 23.6761C20.2562 24.1211 20.0285 24.3915 19.8409 24.5609C19.7539 24.6395 19.7023 24.6708 19.6776 24.6827C19.6725 24.6852 19.6689 24.6866 19.6667 24.6875C19.6667 24.6875 19.6624 24.6858 19.659 24.6843L19.6558 24.6827C19.6311 24.6708 19.5795 24.6395 19.4925 24.5609C19.3049 24.3915 19.0772 24.1211 18.7064 23.6761L18.414 23.3253C18.0855 22.931 17.7894 22.5756 17.5128 22.3259C17.2119 22.0541 16.8328 21.8121 16.3334 21.8121C15.8339 21.8121 15.4548 22.0541 15.1539 22.3259C14.8773 22.5756 14.5812 22.931 14.2527 23.3253L12.4239 25.5199C12.1587 25.8381 12.2017 26.311 12.5199 26.5762C12.8381 26.8414 13.311 26.7984 13.5762 26.4802L15.3731 24.3239C15.7439 23.8789 15.9716 23.6085 16.1592 23.4391C16.2461 23.3606 16.2978 23.3293 16.3225 23.3173L16.3292 23.3142L16.3334 23.3126C16.3356 23.3134 16.3392 23.3149 16.3442 23.3173C16.369 23.3293 16.4206 23.3606 16.5076 23.4391C16.6951 23.6085 16.9228 23.8789 17.2936 24.3239L17.586 24.6748L17.586 24.6748C17.9145 25.069 18.2106 25.4244 18.4872 25.6742C18.7881 25.9459 19.1672 26.188 19.6667 26.188C20.1662 26.188 20.5452 25.9459 20.8462 25.6742C21.1228 25.4244 21.4189 25.069 21.7473 24.6748L23.5762 22.4802Z" fill="url(#paint1_linear_4604_737)"/>
<path d="M28 17C28 18.6569 26.6569 20 25 20C23.3431 20 22 18.6569 22 17C22 15.3431 23.3431 14 25 14C26.6569 14 28 15.3431 28 17Z" fill="url(#paint2_linear_4604_737)"/>
<line x1="19" y1="42" x2="19" y2="48" stroke="#D8D8D8" stroke-width="2"/>
<defs>
<linearGradient id="paint0_linear_4604_737" x1="8" y1="24" x2="28" y2="24" gradientUnits="userSpaceOnUse">
<stop stop-color="#4FA800"/>
<stop offset="1" stop-color="#00844E"/>
</linearGradient>
<linearGradient id="paint1_linear_4604_737" x1="18" y1="21.25" x2="18" y2="26.75" gradientUnits="userSpaceOnUse">
<stop stop-color="#ECC84E"/>
<stop offset="1" stop-color="#FEEBAB"/>
</linearGradient>
<linearGradient id="paint2_linear_4604_737" x1="25" y1="14" x2="25" y2="20" gradientUnits="userSpaceOnUse">
<stop stop-color="#ECC84E"/>
<stop offset="1" stop-color="#FEEBAB"/>
</linearGradient>
</defs>
</svg>
