<svg width="36" height="36" viewBox="0 0 36 36" fill="none" xmlns="http://www.w3.org/2000/svg">
<rect width="36" height="36" rx="18" fill="#D8D8D8"/>
<path d="M8 18C8 13.286 8 10.9289 9.46447 9.46447C10.9289 8 13.286 8 18 8C22.714 8 25.0711 8 26.5355 9.46447C28 10.9289 28 13.286 28 18C28 22.714 28 25.0711 26.5355 26.5355C25.0711 28 22.714 28 18 28C13.286 28 10.9289 28 9.46447 26.5355C8 25.0711 8 22.714 8 18Z" fill="url(#paint0_linear_4604_739)"/>
<path d="M23.5762 16.4802C23.8414 16.1619 23.7984 15.689 23.4802 15.4239C23.1619 15.1587 22.689 15.2017 22.4239 15.5199L20.627 17.6761C20.2562 18.1211 20.0285 18.3915 19.8409 18.5609C19.7539 18.6395 19.7023 18.6708 19.6776 18.6827C19.6725 18.6852 19.6689 18.6866 19.6667 18.6875C19.6667 18.6875 19.6624 18.6858 19.659 18.6843L19.6558 18.6827C19.6311 18.6708 19.5795 18.6395 19.4925 18.5609C19.3049 18.3915 19.0772 18.1211 18.7064 17.6761L18.414 17.3253C18.0855 16.931 17.7894 16.5756 17.5128 16.3259C17.2119 16.0541 16.8328 15.8121 16.3334 15.8121C15.8339 15.8121 15.4548 16.0541 15.1539 16.3259C14.8773 16.5756 14.5812 16.931 14.2527 17.3253L12.4239 19.5199C12.1587 19.8381 12.2017 20.311 12.5199 20.5762C12.8381 20.8414 13.311 20.7984 13.5762 20.4802L15.3731 18.3239C15.7439 17.8789 15.9716 17.6085 16.1592 17.4391C16.2461 17.3606 16.2978 17.3293 16.3225 17.3173L16.3292 17.3142L16.3334 17.3126C16.3356 17.3134 16.3392 17.3149 16.3442 17.3173C16.369 17.3293 16.4206 17.3606 16.5076 17.4391C16.6951 17.6085 16.9228 17.8789 17.2936 18.3239L17.586 18.6748L17.586 18.6748C17.9145 19.069 18.2106 19.4244 18.4872 19.6742C18.7881 19.9459 19.1672 20.188 19.6667 20.188C20.1662 20.188 20.5452 19.9459 20.8462 19.6742C21.1228 19.4244 21.4189 19.069 21.7473 18.6748L23.5762 16.4802Z" fill="url(#paint1_linear_4604_739)"/>
<path d="M28 11C28 12.6569 26.6569 14 25 14C23.3431 14 22 12.6569 22 11C22 9.34315 23.3431 8 25 8C26.6569 8 28 9.34315 28 11Z" fill="url(#paint2_linear_4604_739)"/>
<defs>
<linearGradient id="paint0_linear_4604_739" x1="8" y1="18" x2="28" y2="18" gradientUnits="userSpaceOnUse">
<stop stop-color="#4FA800"/>
<stop offset="1" stop-color="#00844E"/>
</linearGradient>
<linearGradient id="paint1_linear_4604_739" x1="18" y1="15.25" x2="18" y2="20.75" gradientUnits="userSpaceOnUse">
<stop stop-color="#ECC84E"/>
<stop offset="1" stop-color="#FEEBAB"/>
</linearGradient>
<linearGradient id="paint2_linear_4604_739" x1="25" y1="8" x2="25" y2="14" gradientUnits="userSpaceOnUse">
<stop stop-color="#ECC84E"/>
<stop offset="1" stop-color="#FEEBAB"/>
</linearGradient>
</defs>
</svg>
