<svg width="36" height="36" viewBox="0 0 36 36" fill="none" xmlns="http://www.w3.org/2000/svg">
<rect width="36" height="36" rx="18" fill="#E8E8E8"/>
<path d="M15 18C15 18.5523 14.5523 19 14 19C13.4477 19 13 18.5523 13 18C13 17.4477 13.4477 17 14 17C14.5523 17 15 17.4477 15 18Z" fill="#888888"/>
<path d="M19 18C19 18.5523 18.5523 19 18 19C17.4477 19 17 18.5523 17 18C17 17.4477 17.4477 17 18 17C18.5523 17 19 17.4477 19 18Z" fill="#888888"/>
<path d="M23 18C23 18.5523 22.5523 19 22 19C21.4477 19 21 18.5523 21 18C21 17.4477 21.4477 17 22 17C22.5523 17 23 17.4477 23 18Z" fill="#888888"/>
<path fill-rule="evenodd" clip-rule="evenodd" d="M28.75 18C28.75 12.0629 23.9371 7.25 18 7.25C12.0629 7.25 7.25 12.0629 7.25 18C7.25 19.7183 7.65371 21.3445 8.37213 22.7869C8.47933 23.0021 8.50208 23.2219 8.4526 23.4068L7.857 25.6328C7.44927 27.1566 8.84337 28.5507 10.3672 28.143L12.5932 27.5474C12.7781 27.4979 12.9979 27.5207 13.2131 27.6279C14.6555 28.3463 16.2817 28.75 18 28.75C23.9371 28.75 28.75 23.9371 28.75 18ZM18 8.75C23.1086 8.75 27.25 12.8914 27.25 18C27.25 23.1086 23.1086 27.25 18 27.25C16.5189 27.25 15.1212 26.9025 13.8819 26.2852C13.3845 26.0375 12.7897 25.9421 12.2055 26.0984L9.97949 26.694C9.57066 26.8034 9.19663 26.4293 9.30602 26.0205L9.90163 23.7945C10.0579 23.2103 9.96254 22.6155 9.7148 22.1181C9.09752 20.8788 8.75 19.4811 8.75 18C8.75 12.8914 12.8914 8.75 18 8.75Z" fill="#888888"/>
</svg>
