<svg width="36" height="36" viewBox="0 0 36 36" fill="none" xmlns="http://www.w3.org/2000/svg">
<rect width="36" height="36" rx="18" fill="#E8E8E8"/>
<path fill-rule="evenodd" clip-rule="evenodd" d="M13.2628 9.25871C13.3832 8.12953 14.3389 7.25 15.5 7.25H20.5C21.6611 7.25 22.6168 8.12953 22.7372 9.25871C23.5004 9.27425 24.1602 9.31372 24.7236 9.41721C25.4816 9.55644 26.1267 9.82168 26.6517 10.3466C27.2536 10.9485 27.5125 11.7064 27.6335 12.6065C27.75 13.4735 27.75 14.5758 27.75 15.9434V22.0531C27.75 23.4207 27.75 24.523 27.6335 25.39C27.5125 26.2901 27.2536 27.048 26.6517 27.6499C26.0497 28.2518 25.2919 28.5107 24.3918 28.6317C23.5248 28.7483 22.4225 28.7483 21.0549 28.7483H14.9451C13.5775 28.7483 12.4752 28.7483 11.6082 28.6317C10.7081 28.5107 9.95027 28.2518 9.34835 27.6499C8.74643 27.048 8.48754 26.2901 8.36652 25.39C8.24996 24.523 8.24998 23.4207 8.25 22.0531V15.9434C8.24998 14.5758 8.24996 13.4735 8.36652 12.6065C8.48754 11.7064 8.74643 10.9485 9.34835 10.3466C9.87328 9.82168 10.5184 9.55644 11.2764 9.41721C11.8398 9.31372 12.4996 9.27425 13.2628 9.25871ZM13.2648 10.7591C12.5467 10.7745 11.9933 10.8106 11.5473 10.8925C10.9805 10.9966 10.6525 11.1638 10.409 11.4073C10.1322 11.684 9.9518 12.0726 9.85315 12.8064C9.75159 13.5617 9.75 14.5628 9.75 15.9983V21.9983C9.75 23.4337 9.75159 24.4348 9.85315 25.1901C9.9518 25.9239 10.1322 26.3125 10.409 26.5893C10.6858 26.866 11.0743 27.0465 11.8081 27.1451C12.5635 27.2467 13.5646 27.2483 15 27.2483H21C22.4354 27.2483 23.4365 27.2467 24.1919 27.1451C24.9257 27.0465 25.3142 26.866 25.591 26.5893C25.8678 26.3125 26.0482 25.9239 26.1469 25.1901C26.2484 24.4348 26.25 23.4337 26.25 21.9983V15.9983C26.25 14.5628 26.2484 13.5617 26.1469 12.8064C26.0482 12.0726 25.8678 11.684 25.591 11.4073C25.3475 11.1638 25.0195 10.9966 24.4527 10.8925C24.0067 10.8106 23.4533 10.7745 22.7352 10.7591C22.6067 11.8797 21.655 12.75 20.5 12.75H15.5C14.345 12.75 13.3933 11.8797 13.2648 10.7591ZM15.5 8.75C15.0858 8.75 14.75 9.08579 14.75 9.5V10.5C14.75 10.9142 15.0858 11.25 15.5 11.25H20.5C20.9142 11.25 21.25 10.9142 21.25 10.5V9.5C21.25 9.08579 20.9142 8.75 20.5 8.75H15.5Z" fill="#888888"/>
<path d="M23.5762 17.5563C23.8413 17.2381 23.7983 16.7652 23.4801 16.5C23.1619 16.2348 22.689 16.2778 22.4238 16.596L20.6269 18.7523C20.2561 19.1972 20.0284 19.4677 19.8409 19.6371C19.7539 19.7156 19.7023 19.7469 19.6775 19.7589C19.6725 19.7613 19.6689 19.7628 19.6667 19.7636C19.6644 19.7628 19.6608 19.7613 19.6558 19.7589C19.6311 19.7469 19.5795 19.7156 19.4925 19.6371C19.3049 19.4677 19.0772 19.1972 18.7064 18.7523L18.414 18.4014C18.0855 18.0072 17.7894 17.6518 17.5128 17.402C17.2119 17.1302 16.8328 16.8882 16.3333 16.8882C15.8338 16.8882 15.4548 17.1302 15.1538 17.402C14.8772 17.6518 14.5811 18.0072 14.2527 18.4014L12.4238 20.596C12.1586 20.9142 12.2016 21.3872 12.5199 21.6523C12.8381 21.9175 13.311 21.8745 13.5762 21.5563L15.373 19.4C15.7438 18.9551 15.9715 18.6847 16.1591 18.5153C16.2461 18.4367 16.2977 18.4054 16.3225 18.3934C16.3275 18.391 16.3311 18.3895 16.3333 18.3887C16.3356 18.3895 16.3392 18.391 16.3442 18.3934C16.3689 18.4054 16.4205 18.4367 16.5075 18.5153C16.6951 18.6847 16.9228 18.9551 17.2936 19.4L17.586 19.7509C17.9145 20.1452 18.2106 20.5006 18.4872 20.7503C18.7881 21.0221 19.1672 21.2641 19.6667 21.2641C20.1661 21.2641 20.5452 21.0221 20.8461 20.7503C21.1227 20.5006 21.4188 20.1452 21.7473 19.7509L23.5762 17.5563Z" fill="#888888"/>
</svg>
