<svg width="24" height="24" viewBox="0 0 24 24" fill="none" xmlns="http://www.w3.org/2000/svg">
<path d="M9.70783 19.0187V16.5725C9.70783 15.948 10.2177 15.4418 10.8467 15.4418H13.1461C13.4482 15.4418 13.7378 15.561 13.9514 15.773C14.165 15.985 14.285 16.2726 14.285 16.5725V19.0187C14.2831 19.2783 14.3857 19.5279 14.5699 19.7121C14.7541 19.8964 15.0048 20 15.2664 20H16.8351C17.5677 20.0019 18.271 19.7143 18.7897 19.2006C19.3085 18.687 19.6 17.9896 19.6 17.2623V10.2935C19.6 9.70597 19.3377 9.14867 18.8837 8.77173L13.5472 4.54069C12.6189 3.79885 11.2889 3.8228 10.3883 4.59758L5.17361 8.77173C4.6982 9.13756 4.41405 9.69651 4.40001 10.2935V17.2551C4.40001 18.7711 5.63791 20 7.16494 20H8.69783C9.24098 20 9.6824 19.565 9.68634 19.0258L9.70783 19.0187Z" fill="url(#paint0_linear_4676_1349)"/>
<defs>
<linearGradient id="paint0_linear_4676_1349" x1="4.40001" y1="12" x2="19.6" y2="12" gradientUnits="userSpaceOnUse">
<stop stop-color="#4FA800"/>
<stop offset="1" stop-color="#00844E"/>
</linearGradient>
</defs>
</svg>
