<svg width="44" height="44" viewBox="0 0 44 44" fill="none" xmlns="http://www.w3.org/2000/svg">
<circle cx="22" cy="22" r="22" fill="#F2F3F5"/>
<path d="M29.9413 9.62701H31.6529C31.8873 9.62701 32.0773 9.43698 32.0773 9.20257V8.34449C32.0773 8.11008 31.8873 7.92005 31.6529 7.92005H29.9413C29.7069 7.92005 29.5168 8.11008 29.5168 8.34449V9.20257C29.5168 9.43698 29.7069 9.62701 29.9413 9.62701Z" fill="#93CE15"/>
<path d="M25.9095 12.4372C25.8712 12.4371 25.8336 12.4265 25.8009 12.4065C25.7682 12.3864 25.7417 12.3578 25.7242 12.3236C25.7068 12.2895 25.6991 12.2512 25.702 12.213C25.7049 12.1748 25.7182 12.1381 25.7406 12.107L27.9388 9.0633C28.0387 8.92514 28.1698 8.81262 28.3216 8.73493C28.4734 8.65724 28.6414 8.6166 28.8118 8.61633H29.5206C29.5759 8.61633 29.629 8.6383 29.6681 8.67739C29.7072 8.71649 29.7291 8.76951 29.7291 8.8248C29.7291 8.8801 29.7072 8.93312 29.6681 8.97222C29.629 9.01131 29.5759 9.03328 29.5206 9.03328H28.8118C28.7073 9.03351 28.6044 9.05844 28.5113 9.10605C28.4183 9.15365 28.3378 9.22258 28.2765 9.30721L26.0788 12.3509C26.0594 12.3777 26.034 12.3995 26.0045 12.4145C25.9751 12.4295 25.9425 12.4373 25.9095 12.4372Z" fill="#979797"/>
<path d="M14.456 7.92004H12.7445C12.51 7.92004 12.32 8.11008 12.32 8.34449V9.20256C12.32 9.43698 12.51 9.62701 12.7445 9.62701H14.456C14.6904 9.62701 14.8805 9.43698 14.8805 9.20256V8.34449C14.8805 8.11008 14.6904 7.92004 14.456 7.92004Z" fill="#93CE15"/>
<path d="M18.4879 12.4367C18.4548 12.4367 18.4222 12.4289 18.3928 12.4138C18.3633 12.3987 18.3379 12.3769 18.3186 12.35L16.1209 9.30632C16.0596 9.2217 15.9791 9.15277 15.886 9.10516C15.793 9.05756 15.69 9.03262 15.5855 9.03239H14.8767C14.8214 9.03239 14.7684 9.01043 14.7293 8.97133C14.6902 8.93224 14.6682 8.87921 14.6682 8.82392C14.6682 8.76863 14.6902 8.7156 14.7293 8.67651C14.7684 8.63741 14.8214 8.61545 14.8767 8.61545H15.5855C15.756 8.61571 15.924 8.65635 16.0758 8.73404C16.2275 8.81173 16.3587 8.92426 16.4586 9.06241L18.6567 12.1061C18.6791 12.1372 18.6925 12.1739 18.6954 12.2121C18.6983 12.2504 18.6906 12.2886 18.6731 12.3228C18.6557 12.3569 18.6291 12.3856 18.5965 12.4056C18.5638 12.4256 18.5262 12.4363 18.4879 12.4363V12.4367Z" fill="#979797"/>
<path d="M28.0776 28.223C28.025 28.2231 27.9745 28.2028 27.9366 28.1663L27.9321 28.1621C27.9122 28.1432 27.8963 28.1206 27.8853 28.0955C27.8742 28.0705 27.8682 28.0435 27.8675 28.0161C27.8669 27.9887 27.8716 27.9614 27.8815 27.9359C27.8914 27.9103 27.9063 27.887 27.9252 27.8671C27.9441 27.8473 27.9667 27.8314 27.9918 27.8203C28.0169 27.8093 28.0438 27.8032 28.0712 27.8026C28.0986 27.802 28.1259 27.8067 28.1514 27.8166C28.177 27.8265 28.2003 27.8413 28.2202 27.8603C28.2515 27.8887 28.2734 27.926 28.283 27.9672C28.2926 28.0083 28.2894 28.0515 28.274 28.0908C28.2585 28.1302 28.2314 28.1639 28.1964 28.1875C28.1613 28.2111 28.1198 28.2235 28.0776 28.223Z" fill="#979797"/>
<path d="M20.2245 31.3779V35.544C20.2245 35.8029 20.3273 36.0511 20.5103 36.2342C20.6934 36.4172 20.9417 36.5201 21.2005 36.5201H23.2019C23.4606 36.52 23.7088 36.4171 23.8918 36.234C24.0747 36.051 24.1775 35.8028 24.1775 35.544V31.3779H20.2245Z" fill="#00833E"/>
<path d="M30.1634 14.6118H27.8127V13.323H30.1634C30.314 13.323 30.4584 13.3828 30.5649 13.4893C30.6714 13.5958 30.7313 13.7403 30.7313 13.8909V14.0439C30.7313 14.1945 30.6714 14.3389 30.5649 14.4454C30.4584 14.5519 30.314 14.6118 30.1634 14.6118Z" fill="#00833E"/>
<path d="M14.2339 13.3227H16.5847V14.6114H14.2339C14.0833 14.6114 13.9389 14.5516 13.8324 14.4451C13.7259 14.3386 13.666 14.1942 13.666 14.0436V13.8905C13.666 13.7399 13.7259 13.5955 13.8324 13.489C13.9389 13.3825 14.0833 13.3227 14.2339 13.3227Z" fill="#00833E"/>
<path d="M22.1987 14.2258C23.044 14.2258 23.7293 13.5405 23.7293 12.6952C23.7293 11.8499 23.044 11.1646 22.1987 11.1646C21.3533 11.1646 20.6681 11.8499 20.6681 12.6952C20.6681 13.5405 21.3533 14.2258 22.1987 14.2258Z" fill="#93CE15"/>
<path d="M27.2937 15.5872H17.1057C16.9149 15.587 16.7319 15.5111 16.597 15.3761C16.462 15.2411 16.3862 15.058 16.3861 14.8672V12.7407C16.3863 12.55 16.4622 12.367 16.5971 12.2321C16.732 12.0972 16.9149 12.0213 17.1057 12.0211H18.9936C19.1483 11.2856 19.5512 10.6256 20.1347 10.1519C20.7183 9.67826 21.4471 9.41974 22.1987 9.41974C22.9503 9.41974 23.679 9.67826 24.2626 10.1519C24.8462 10.6256 25.2491 11.2856 25.4037 12.0211H27.2937C27.4845 12.0213 27.6675 12.0972 27.8024 12.2321C27.9373 12.367 28.0132 12.55 28.0134 12.7407V14.8672C28.0133 15.058 27.9374 15.2411 27.8025 15.3761C27.6676 15.5111 27.4846 15.587 27.2937 15.5872ZM17.1057 12.4368C17.0255 12.4369 16.9485 12.4688 16.8918 12.5256C16.8351 12.5823 16.8031 12.6592 16.803 12.7395V14.8659C16.803 14.9462 16.8349 15.0233 16.8917 15.0801C16.9484 15.1369 17.0254 15.1689 17.1057 15.169H27.2937C27.3741 15.1689 27.4511 15.1369 27.5078 15.0801C27.5646 15.0233 27.5964 14.9462 27.5964 14.8659V12.7395C27.5963 12.6592 27.5644 12.5823 27.5077 12.5256C27.4509 12.4688 27.374 12.4369 27.2937 12.4368H25.3091C25.288 12.4368 25.2671 12.4336 25.247 12.4272H25.2286C25.1786 12.4278 25.13 12.4104 25.0917 12.3782C25.0535 12.346 25.028 12.3011 25.0201 12.2517C24.915 11.5783 24.5727 10.9646 24.055 10.5214C23.5372 10.0782 22.8781 9.83467 22.1966 9.83467C21.5151 9.83467 20.856 10.0782 20.3382 10.5214C19.8205 10.9646 19.4782 11.5783 19.3731 12.2517C19.3652 12.3011 19.3398 12.346 19.3015 12.3782C19.2632 12.4104 19.2146 12.4278 19.1646 12.4272H19.1458C19.1266 12.4336 19.1065 12.4369 19.0862 12.4368H17.1057Z" fill="#979797"/>
<path d="M25.9282 31.9869V29.6937C25.9282 28.7051 25.5355 27.7569 24.8365 27.0578C24.1375 26.3587 23.1894 25.9659 22.2008 25.9658C21.2121 25.9658 20.2639 26.3585 19.5647 27.0577C18.8656 27.7568 18.4729 28.705 18.4729 29.6937V31.9869H25.9282Z" fill="#93CE15"/>
<path d="M26.8934 32.1953H17.5064C17.1366 32.1951 16.782 32.0482 16.5204 31.7868C16.2589 31.5254 16.1117 31.1709 16.1113 30.8011V20.2524C16.1079 19.3274 16.3175 18.4139 16.7239 17.5829C17.1302 16.7519 17.7224 16.0255 18.4545 15.4601C18.4983 15.4288 18.5525 15.4158 18.6057 15.4236C18.659 15.4314 18.7071 15.4594 18.7401 15.5019C18.7731 15.5444 18.7884 15.598 18.7828 15.6515C18.7772 15.705 18.7512 15.7543 18.7101 15.789C18.0288 16.3157 17.4778 16.9919 17.0996 17.7655C16.7214 18.5391 16.5262 19.3893 16.5291 20.2503V30.799C16.5294 31.0581 16.6325 31.3065 16.8157 31.4897C16.9989 31.6729 17.2473 31.776 17.5064 31.7763H26.8934C27.1519 31.7755 27.3995 31.6726 27.5823 31.4899C27.7651 31.3071 27.8682 31.0595 27.8691 30.8011V20.2524C27.8713 19.5083 27.7255 18.7712 27.4401 18.084C27.1547 17.3969 26.7354 16.7733 26.2067 16.2498C26.0448 16.0864 25.872 15.934 25.6897 15.7936C25.6455 15.7604 25.6163 15.7111 25.6084 15.6563C25.6006 15.6016 25.6149 15.546 25.648 15.5018C25.6812 15.4575 25.7306 15.4283 25.7853 15.4205C25.8401 15.4126 25.8957 15.4269 25.9399 15.4601C26.1374 15.6113 26.3242 15.7759 26.499 15.9529C27.0672 16.515 27.5178 17.1846 27.8246 17.9226C28.1314 18.6606 28.2883 19.4523 28.286 20.2516V30.8003C28.2858 31.1698 28.1391 31.5241 27.8781 31.7856C27.617 32.0471 27.2629 32.1945 26.8934 32.1953Z" fill="#979797"/>
<path d="M28.0775 28.2188C28.0452 28.2188 28.0133 28.2113 27.9843 28.1968C27.9554 28.1823 27.9302 28.1613 27.9108 28.1354L25.2131 24.5705C25.1911 24.5415 25.1768 24.5074 25.1714 24.4713L24.692 20.7605C24.6881 20.7306 24.6907 20.7002 24.6997 20.6714C24.7087 20.6426 24.7238 20.6161 24.7441 20.5937L27.3875 17.6584C27.4107 17.6329 27.4399 17.6135 27.4724 17.6018C27.5049 17.5902 27.5397 17.5867 27.5739 17.5917C27.608 17.597 27.6404 17.6106 27.6679 17.6314C27.6955 17.6522 27.7175 17.6796 27.7319 17.711C28.0982 18.5076 28.2873 19.3742 28.286 20.251V28.0103C28.286 28.054 28.2723 28.0966 28.2468 28.1321C28.2213 28.1675 28.1853 28.1941 28.1438 28.208C28.1225 28.2151 28.1001 28.2188 28.0775 28.2188ZM25.5792 24.3637L27.8691 27.3891V20.251C27.8703 19.5431 27.7383 18.8413 27.4801 18.1821L25.1197 20.8014L25.5792 24.3637Z" fill="#979797"/>
<path d="M16.4211 28.2186C16.4545 28.2186 16.4874 28.2111 16.5173 28.1966C16.5472 28.1821 16.5732 28.1611 16.5932 28.1352L19.3768 24.5703C19.3995 24.5413 19.4143 24.5072 19.4198 24.4711L19.9145 20.7603C19.9186 20.7304 19.9158 20.7 19.9066 20.6712C19.8973 20.6424 19.8817 20.6159 19.8608 20.5935L17.1331 17.6582C17.1092 17.6327 17.0791 17.6132 17.0456 17.6016C17.012 17.59 16.9761 17.5865 16.9408 17.5915C16.9056 17.5967 16.8722 17.6104 16.8437 17.6312C16.8153 17.652 16.7926 17.6794 16.7778 17.7108C16.3998 18.5074 16.2047 19.374 16.206 20.2508V28.0101C16.206 28.0538 16.2202 28.0964 16.2465 28.1318C16.2728 28.1673 16.31 28.1939 16.3527 28.2077C16.3747 28.2149 16.3978 28.2186 16.4211 28.2186ZM18.999 24.3635L16.6362 27.3889V20.2508C16.6349 19.5429 16.7711 18.841 17.0376 18.1819L19.4731 20.8012L18.999 24.3635Z" fill="#979797"/>
</svg>
