<svg width="24" height="24" viewBox="0 0 24 24" fill="none" xmlns="http://www.w3.org/2000/svg">
<path fill-rule="evenodd" clip-rule="evenodd" d="M7.26279 3.25871C7.38317 2.12953 8.33887 1.25 9.5 1.25H14.5C15.6611 1.25 16.6168 2.12953 16.7372 3.25871C17.5004 3.27425 18.1602 3.31372 18.7236 3.41721C19.4816 3.55644 20.1267 3.82168 20.6517 4.34661C21.2536 4.94853 21.5125 5.7064 21.6335 6.60651C21.75 7.47348 21.75 8.5758 21.75 9.94339V16.0531C21.75 17.4207 21.75 18.523 21.6335 19.39C21.5125 20.2901 21.2536 21.048 20.6517 21.6499C20.0497 22.2518 19.2919 22.5107 18.3918 22.6317C17.5248 22.7483 16.4225 22.7483 15.0549 22.7483H8.94513C7.57754 22.7483 6.47522 22.7483 5.60825 22.6317C4.70814 22.5107 3.95027 22.2518 3.34835 21.6499C2.74643 21.048 2.48754 20.2901 2.36652 19.39C2.24996 18.523 2.24998 17.4207 2.25 16.0531V9.94339C2.24998 8.5758 2.24996 7.47348 2.36652 6.60651C2.48754 5.7064 2.74643 4.94853 3.34835 4.34661C3.87328 3.82168 4.51835 3.55644 5.27635 3.41721C5.83977 3.31372 6.49963 3.27425 7.26279 3.25871ZM7.26476 4.75913C6.54668 4.77447 5.99332 4.81061 5.54735 4.89253C4.98054 4.99664 4.65246 5.16382 4.40901 5.40727C4.13225 5.68403 3.9518 6.07261 3.85315 6.80638C3.75159 7.56173 3.75 8.56285 3.75 9.99826V15.9983C3.75 17.4337 3.75159 18.4348 3.85315 19.1901C3.9518 19.9239 4.13225 20.3125 4.40901 20.5893C4.68577 20.866 5.07435 21.0465 5.80812 21.1451C6.56347 21.2467 7.56458 21.2483 9 21.2483H15C16.4354 21.2483 17.4365 21.2467 18.1919 21.1451C18.9257 21.0465 19.3142 20.866 19.591 20.5893C19.8678 20.3125 20.0482 19.9239 20.1469 19.1901C20.2484 18.4348 20.25 17.4337 20.25 15.9983V9.99826C20.25 8.56285 20.2484 7.56173 20.1469 6.80638C20.0482 6.07261 19.8678 5.68403 19.591 5.40727C19.3475 5.16382 19.0195 4.99664 18.4527 4.89253C18.0067 4.81061 17.4533 4.77447 16.7352 4.75913C16.6067 5.87972 15.655 6.75 14.5 6.75H9.5C8.345 6.75 7.39326 5.87972 7.26476 4.75913ZM9.5 2.75C9.08579 2.75 8.75 3.08579 8.75 3.5V4.5C8.75 4.91421 9.08579 5.25 9.5 5.25H14.5C14.9142 5.25 15.25 4.91421 15.25 4.5V3.5C15.25 3.08579 14.9142 2.75 14.5 2.75H9.5Z" fill="#888888"/>
<path d="M17.5762 11.5563C17.8413 11.2381 17.7983 10.7652 17.4801 10.5C17.1619 10.2348 16.689 10.2778 16.4238 10.596L14.6269 12.7523C14.2561 13.1972 14.0284 13.4677 13.8409 13.6371C13.7539 13.7156 13.7023 13.7469 13.6775 13.7589C13.6725 13.7613 13.6689 13.7628 13.6667 13.7636C13.6644 13.7628 13.6608 13.7613 13.6558 13.7589C13.6311 13.7469 13.5795 13.7156 13.4925 13.6371C13.3049 13.4677 13.0772 13.1972 12.7064 12.7523L12.414 12.4014C12.0855 12.0072 11.7894 11.6518 11.5128 11.402C11.2119 11.1302 10.8328 10.8882 10.3333 10.8882C9.83383 10.8882 9.45477 11.1302 9.15383 11.402C8.87723 11.6518 8.58112 12.0072 8.25266 12.4014L6.42382 14.596C6.15865 14.9142 6.20164 15.3872 6.51985 15.6523C6.83806 15.9175 7.31098 15.8745 7.57615 15.5563L9.37304 13.4C9.74384 12.9551 9.97154 12.6847 10.1591 12.5153C10.2461 12.4367 10.2977 12.4054 10.3225 12.3934C10.3275 12.391 10.3311 12.3895 10.3333 12.3887C10.3356 12.3895 10.3392 12.391 10.3442 12.3934C10.3689 12.4054 10.4205 12.4367 10.5075 12.5153C10.6951 12.6847 10.9228 12.9551 11.2936 13.4L11.586 13.7509C11.9145 14.1452 12.2106 14.5006 12.4872 14.7503C12.7881 15.0221 13.1672 15.2641 13.6667 15.2641C14.1661 15.2641 14.5452 15.0221 14.8461 14.7503C15.1227 14.5006 15.4188 14.1452 15.7473 13.7509L17.5762 11.5563Z" fill="#888888"/>
</svg>
