<svg width="36" height="36" viewBox="0 0 36 36" fill="none" xmlns="http://www.w3.org/2000/svg">
<rect width="36" height="36" rx="18" fill="#E8E8E8"/>
<path fill-rule="evenodd" clip-rule="evenodd" d="M24.7232 25.4027C26.7362 23.5734 28 20.9343 28 18C28 12.4772 23.5228 8 18 8C12.4772 8 8 12.4772 8 18C8 20.9345 9.264 23.5738 11.2773 25.4031C11.2993 25.4266 11.3235 25.4484 11.3496 25.4682C13.1169 27.0431 15.4467 28 18 28C20.5531 28 22.8828 27.0432 24.65 25.4686C24.6765 25.4485 24.7009 25.4264 24.7232 25.4027ZM18 9.17647C13.1269 9.17647 9.17647 13.1269 9.17647 18C9.17647 20.3408 10.088 22.4687 11.5754 24.0481C12.1942 23.0895 13.0216 22.2786 13.9997 21.6783C14.4744 21.3869 14.9773 21.1496 15.499 20.969C14.2879 20.1604 13.4902 18.7812 13.4902 17.2157C13.4902 14.725 15.5093 12.7059 18 12.7059C20.4907 12.7059 22.5098 14.725 22.5098 17.2157C22.5098 18.7812 21.7122 20.1604 20.5011 20.969C21.0227 21.1496 21.5256 21.3869 22.0004 21.6783C22.9784 22.2786 23.8059 23.0895 24.4247 24.048C25.9121 22.4686 26.8235 20.3408 26.8235 18C26.8235 13.1269 22.8731 9.17647 18 9.17647ZM23.5463 24.8628C23.0126 23.9745 22.272 23.2254 21.3849 22.6809C20.3824 22.0655 19.2313 21.7353 18.0557 21.7252C18.0372 21.7254 18.0186 21.7255 18 21.7255C17.9815 21.7255 17.9629 21.7254 17.9444 21.7252C16.7687 21.7353 15.6177 22.0655 14.6151 22.6809C13.7281 23.2254 12.9875 23.9745 12.4537 24.8628C13.9691 26.0891 15.8988 26.8235 18 26.8235C20.1012 26.8235 22.0309 26.089 23.5463 24.8628ZM18.0522 20.5487C19.8691 20.5208 21.3334 19.0393 21.3334 17.2157C21.3334 15.3748 19.841 13.8824 18 13.8824C16.1591 13.8824 14.6667 15.3748 14.6667 17.2157C14.6667 19.0393 16.131 20.5208 17.9479 20.5487C17.9653 20.5485 17.9827 20.5485 18 20.5485C18.0174 20.5485 18.0348 20.5485 18.0522 20.5487Z" fill="#888888"/>
<path fill-rule="evenodd" clip-rule="evenodd" d="M8 18C8 12.4772 12.4772 8 18 8C23.5228 8 28 12.4772 28 18C28 20.9314 26.7384 23.5684 24.7293 25.3972C24.703 25.4246 24.6745 25.4502 24.644 25.4739C22.8777 27.0452 20.5501 28 18 28C15.4497 28 13.122 27.0451 11.3556 25.4736C11.3254 25.4501 11.2973 25.4247 11.2712 25.3976C9.26179 23.5688 8 20.9316 8 18ZM18 8.44444C12.7226 8.44444 8.44444 12.7226 8.44444 18C8.44444 20.8041 9.65198 23.3258 11.5761 25.0741C11.5804 25.0781 11.5846 25.0821 11.5886 25.0864C11.6017 25.1004 11.6161 25.1134 11.6318 25.1253C11.6364 25.1288 11.6409 25.1325 11.6453 25.1364C13.3341 26.6413 15.56 27.5556 18 27.5556C20.4398 27.5556 22.6656 26.6415 24.3544 25.1367C24.3566 25.1347 24.3588 25.1328 24.3611 25.131C24.3634 25.1291 24.3657 25.1273 24.368 25.1255C24.3839 25.1135 24.3985 25.1003 24.4117 25.0861C24.4158 25.0819 24.42 25.0777 24.4243 25.0737C26.3482 23.3254 27.5556 20.8039 27.5556 18C27.5556 12.7226 23.2774 8.44444 18 8.44444ZM18 9.59477C13.3579 9.59477 9.59477 13.3579 9.59477 18C9.59477 20.1294 10.3864 22.0735 11.6917 23.5548C12.2945 22.6933 13.0697 21.9611 13.9724 21.4071C14.3313 21.1868 14.7063 20.9972 15.0932 20.8394C14.0415 19.9906 13.3682 18.6906 13.3682 17.2331C13.3682 14.6751 15.442 12.6013 18 12.6013C20.5581 12.6013 22.6318 14.6751 22.6318 17.2331C22.6318 18.6906 21.9586 19.9906 20.9069 20.8394C21.2938 20.9972 21.6688 21.1868 22.0277 21.4071C22.9303 21.9611 23.7055 22.6933 24.3083 23.5547C25.6136 22.0735 26.4052 20.1294 26.4052 18C26.4052 13.3579 22.6421 9.59477 18 9.59477ZM9.15033 18C9.15033 13.1125 13.1125 9.15033 18 9.15033C22.8875 9.15033 26.8497 13.1125 26.8497 18C26.8497 20.3476 25.9353 22.4821 24.4437 24.066C24.3968 24.1157 24.3297 24.1412 24.2617 24.1349C24.1936 24.1287 24.1323 24.0916 24.0952 24.0342C23.5081 23.1248 22.7231 22.3555 21.7952 21.7859C21.3448 21.5095 20.8677 21.2843 20.3728 21.1131C20.2931 21.0855 20.2358 21.0151 20.2251 20.9314C20.2143 20.8477 20.2519 20.7651 20.3221 20.7182C21.4472 19.9671 22.1874 18.6865 22.1874 17.2331C22.1874 14.9205 20.3127 13.0458 18 13.0458C15.6874 13.0458 13.8127 14.9205 13.8127 17.2331C13.8127 18.6865 14.5529 19.9671 15.678 20.7182C15.7481 20.7651 15.7857 20.8477 15.775 20.9314C15.7642 21.0151 15.707 21.0855 15.6272 21.1131C15.1323 21.2843 14.6552 21.5095 14.2049 21.7859C13.2769 22.3555 12.4919 23.1248 11.9048 24.0342C11.8678 24.0916 11.8064 24.1288 11.7384 24.135C11.6703 24.1412 11.6032 24.1158 11.5564 24.066C10.0647 22.4821 9.15033 20.3476 9.15033 18ZM18 14.1961C16.3227 14.1961 14.963 15.5558 14.963 17.2331C14.963 18.8939 16.2961 20.2434 17.9505 20.2698L18 20.2696L18.0495 20.2698C19.704 20.2434 21.0371 18.8939 21.0371 17.2331C21.0371 15.5558 19.6773 14.1961 18 14.1961ZM14.5186 17.2331C14.5186 15.3104 16.0773 13.7517 18 13.7517C19.9228 13.7517 21.4815 15.3104 21.4815 17.2331C21.4815 19.1378 19.9521 20.6851 18.0544 20.7142L18.0495 20.7143L18.0495 20.7142L18 20.7141L17.9506 20.7142L17.9457 20.7143L17.9457 20.7142C16.0479 20.6851 14.5186 19.1378 14.5186 17.2331ZM18.0564 21.4201V21.4202C19.2462 21.4304 20.4112 21.7647 21.426 22.3875C22.3237 22.9386 23.0733 23.6968 23.6136 24.5958C23.6706 24.6908 23.649 24.8133 23.5629 24.883C22.043 26.1129 20.1073 26.8497 18 26.8497C15.8928 26.8497 13.957 26.1129 12.4372 24.8831C12.351 24.8134 12.3294 24.6909 12.3865 24.5959C12.9267 23.6968 13.6763 22.9386 14.5741 22.3875C15.5888 21.7647 16.7538 21.4304 17.9437 21.4202L17.9483 21.4201L17.9483 21.4202C17.9655 21.4204 17.9828 21.4205 18 21.4205C18.0173 21.4205 18.0346 21.4204 18.0518 21.4202L18.0564 21.4201ZM17.9452 21.8646C16.8369 21.8746 15.7518 22.1861 14.8066 22.7663C14.0255 23.2458 13.3647 23.8935 12.8706 24.6592C14.2899 25.7541 16.0686 26.4052 18 26.4052C19.9314 26.4052 21.7101 25.7541 23.1294 24.6591C22.6354 23.8935 21.9746 23.2457 21.1935 22.7663C20.2482 22.1861 19.1632 21.8746 18.0548 21.8646C18.0366 21.8648 18.0183 21.865 18 21.865C17.9817 21.865 17.9635 21.8648 17.9452 21.8646Z" fill="#888888"/>
</svg>
