<svg width="24" height="24" viewBox="0 0 24 24" fill="none" xmlns="http://www.w3.org/2000/svg">
<path fill-rule="evenodd" clip-rule="evenodd" d="M10.4815 2H12.5428C14.3358 1.99999 15.7559 1.99997 16.8673 2.14245C18.0112 2.28908 18.937 2.59803 19.6671 3.29418C19.9528 3.56664 19.9528 4.00838 19.6671 4.28084C19.3813 4.5533 18.918 4.5533 18.6323 4.28084C18.2194 3.88716 17.6539 3.65119 16.6723 3.52536C15.6697 3.39683 14.3481 3.39535 12.4878 3.39535H10.5366C8.67627 3.39535 7.35465 3.39683 6.35205 3.52536C5.3705 3.65119 4.80499 3.88716 4.3921 4.28084C3.97921 4.67452 3.73173 5.21373 3.59977 6.14963C3.46497 7.10559 3.46342 8.36575 3.46342 10.1395V13.8605C3.46342 15.6343 3.46497 16.8944 3.59977 17.8504C3.73173 18.7863 3.97921 19.3255 4.3921 19.7192C4.80499 20.1128 5.3705 20.3488 6.35205 20.4746C7.35465 20.6032 8.67627 20.6047 10.5366 20.6047H12.4878C14.3481 20.6047 15.6697 20.6032 16.6723 20.4746C17.6539 20.3488 18.2194 20.1128 18.6323 19.7192C19.3113 19.0718 19.5168 18.0659 19.5526 15.7108C19.5584 15.3256 19.8907 15.0178 20.2948 15.0233C20.6989 15.0289 21.0217 15.3457 21.0158 15.731C20.9816 17.9891 20.8283 19.5986 19.6671 20.7058C18.937 21.402 18.0112 21.7109 16.8673 21.8575C15.7559 22 14.3358 22 12.5428 22H10.4816C8.68861 22 7.26848 22 6.15705 21.8575C5.01322 21.7109 4.08742 21.402 3.35731 20.7058C2.6272 20.0097 2.30318 19.1269 2.1494 18.0363C1.99997 16.9766 1.99998 15.6225 2 13.9129V10.0871C1.99998 8.37751 1.99997 7.02343 2.1494 5.9637C2.30318 4.87307 2.6272 3.99033 3.35731 3.29418C4.08742 2.59803 5.01322 2.28908 6.15705 2.14245C7.26848 1.99997 8.68861 1.99999 10.4815 2ZM17.4762 7.39122C18.5111 6.40448 20.189 6.40448 21.2238 7.39122C22.2587 8.37796 22.2587 9.97778 21.2238 10.9645L16.5845 15.3881C16.3321 15.6288 16.1614 15.7917 15.9701 15.9339C15.7451 16.1012 15.5016 16.2447 15.2441 16.3617C15.0251 16.4612 14.796 16.534 14.4573 16.6416L12.4245 17.2877C11.9757 17.4304 11.4809 17.319 11.1463 17C10.8118 16.681 10.695 16.2092 10.8446 15.7813L11.5086 13.8821C11.5132 13.8689 11.5177 13.8559 11.5222 13.8431C11.635 13.5201 11.7114 13.3017 11.8157 13.0929C11.9385 12.8473 12.089 12.6151 12.2645 12.4006C12.4136 12.2183 12.5844 12.0554 12.8369 11.8148C12.8469 11.8052 12.8571 11.7955 12.8674 11.7857L17.4762 7.39122ZM20.1891 8.37788C19.7257 7.93606 18.9744 7.93606 18.511 8.37788L18.3337 8.54698C18.3433 8.57813 18.3543 8.61125 18.367 8.64607C18.4588 8.89828 18.6329 9.23188 18.9632 9.54675C19.2934 9.86163 19.6433 10.0277 19.9078 10.1152C19.9443 10.1273 19.979 10.1378 20.0117 10.147L20.1891 9.97786C20.6524 9.53604 20.6524 8.8197 20.1891 8.37788ZM18.8941 11.2126C18.5839 11.0573 18.2491 10.8392 17.9284 10.5334C17.6077 10.2276 17.379 9.90833 17.216 9.61263L13.9022 12.7724C13.6084 13.0524 13.5054 13.1524 13.4184 13.2588C13.3082 13.3934 13.2138 13.5391 13.1368 13.6932C13.0759 13.815 13.0282 13.9476 12.8969 14.3233L12.5063 15.4404L12.782 15.7033L13.9536 15.3309C14.3477 15.2056 14.4867 15.1602 14.6145 15.1021C14.7761 15.0287 14.9289 14.9387 15.0701 14.8336C15.1816 14.7507 15.2865 14.6524 15.5802 14.3723L18.8941 11.2126ZM6.87805 9.2093C6.87805 8.82399 7.20565 8.51163 7.60976 8.51163H13.9512C14.3553 8.51163 14.6829 8.82399 14.6829 9.2093C14.6829 9.59462 14.3553 9.90698 13.9512 9.90698H7.60976C7.20565 9.90698 6.87805 9.59462 6.87805 9.2093ZM6.87805 12.9302C6.87805 12.5449 7.20565 12.2326 7.60976 12.2326H10.0488C10.4529 12.2326 10.7805 12.5449 10.7805 12.9302C10.7805 13.3155 10.4529 13.6279 10.0488 13.6279H7.60976C7.20565 13.6279 6.87805 13.3155 6.87805 12.9302ZM6.87805 16.6512C6.87805 16.2658 7.20565 15.9535 7.60976 15.9535H9.07317C9.47728 15.9535 9.80488 16.2658 9.80488 16.6512C9.80488 17.0365 9.47728 17.3488 9.07317 17.3488H7.60976C7.20565 17.3488 6.87805 17.0365 6.87805 16.6512Z" fill="white"/>
</svg>
