<svg width="77" height="32" viewBox="0 0 77 32" fill="none" xmlns="http://www.w3.org/2000/svg">
<g clip-path="url(#clip0_4604_622)">
<path d="M49.9915 15.6558V15.5773C52.2614 14.4131 53.321 12.3165 53.321 10.1428C53.321 7.1153 51.0479 3.54418 44.5892 3.54418C39.2261 3.54418 35.544 6.41617 35.544 10.8027C35.544 13.0164 36.3679 15.0352 38.6786 16.3157L38.7171 16.3927C36.0545 17.5577 34.3713 19.5365 34.3713 22.5655C34.3713 25.8248 37.2287 29.63 44.2357 29.63C50.5782 29.63 54.4944 26.4847 54.4944 21.8279C54.4944 18.4901 52.1844 16.4705 49.9915 15.6566V15.6558ZM44.322 8.28566C46.123 8.28566 46.8068 9.55534 46.8068 10.9136C46.8068 12.1555 46.0437 13.4414 45.025 13.6747C43.3418 13.1303 41.4707 11.9754 41.4707 10.6556C41.4707 9.3359 42.6395 8.28566 44.322 8.28566ZM44.5114 24.8932C42.7504 24.8932 41.4707 23.4387 41.4707 21.8864C41.4707 20.3342 42.3146 18.8027 43.8407 18.4139C45.681 18.8797 47.3966 20.4651 47.3966 22.2899C47.3966 23.7644 46.1553 24.8939 44.5114 24.8939V24.8932Z" fill="#00833E"/>
<path d="M72.4978 15.6558V15.5773C74.7685 14.4131 75.8273 12.3165 75.8273 10.1428C75.8273 7.1153 73.555 3.54418 67.0939 3.54418C61.7309 3.54418 58.0488 6.41617 58.0488 10.8027C58.0488 13.0164 58.8734 15.0352 61.1819 16.3157L61.2219 16.3927C58.56 17.5577 56.8761 19.5365 56.8761 22.5655C56.8761 25.8248 59.7335 29.63 66.7421 29.63C73.083 29.63 76.9992 26.4847 76.9992 21.8279C76.9992 18.4901 74.6892 16.4705 72.497 15.6566L72.4978 15.6558ZM66.8268 8.28566C68.6286 8.28566 69.3123 9.55534 69.3123 10.9136C69.3123 12.1555 68.5477 13.4414 67.5305 13.6747C65.8466 13.1303 63.9747 11.9754 63.9747 10.6556C63.9747 9.3359 65.1435 8.28566 66.8268 8.28566ZM67.0154 24.8932C65.2544 24.8932 63.9747 23.4387 63.9747 21.8864C63.9747 20.3342 64.8186 18.8027 66.3447 18.4139C68.185 18.8797 69.9006 20.4651 69.9006 22.2899C69.9006 23.7644 68.6594 24.8939 67.0154 24.8939V24.8932Z" fill="#00833E"/>
<path d="M23.974 1.93977C9.20843 -5.35031 -5.35227 9.21215 1.94117 23.9763C3.24016 26.6066 5.38153 28.7494 8.01031 30.0506C22.7835 37.3669 37.3666 22.7798 30.0493 8.00792C28.7472 5.37924 26.6043 3.23795 23.9732 1.939L23.974 1.93977ZM17.7785 14.2224H23.7037C23.7037 17.4955 21.0518 20.1481 17.7785 20.1481H14.2227V23.7038C14.2227 26.9769 11.5693 29.6295 8.29675 29.6295V7.09473C8.29675 5.14054 9.88141 3.55594 11.8357 3.55594H24.8895C24.8895 6.82909 22.2376 9.48164 18.9636 9.48164H14.2234V14.2216H17.7793L17.7785 14.2224Z" fill="#00833E"/>
</g>
<defs>
<clipPath id="clip0_4604_622">
<rect width="77" height="32" fill="white"/>
</clipPath>
</defs>
</svg>
