<svg width="16" height="16" viewBox="0 0 16 16" fill="none" xmlns="http://www.w3.org/2000/svg">
<g clip-path="url(#clip0_4640_84)">
<path d="M7.96173 0.833344H8.03824C9.57716 0.833335 10.7832 0.833328 11.7242 0.959841C12.6873 1.08933 13.4474 1.35956 14.0439 1.9561C14.6404 2.55264 14.9107 3.31266 15.0402 4.27581C15.1667 5.21681 15.1667 6.42283 15.1667 7.96176V8.03826C15.1667 9.57719 15.1667 10.7832 15.0402 11.7242C14.9107 12.6874 14.6404 13.4474 14.0439 14.0439C13.4916 14.5962 12.7987 14.8692 11.9329 15.0093C11.0817 15.1471 10.011 15.1639 8.66755 15.1663C8.39141 15.1668 8.16715 14.9433 8.16665 14.6672C8.16615 14.3911 8.38961 14.1668 8.66575 14.1663C10.0257 14.1638 11.0145 14.145 11.7731 14.0222C12.5171 13.9018 12.9844 13.6892 13.3368 13.3368C13.7166 12.957 13.9345 12.4432 14.0491 11.591C14.1656 10.7243 14.1667 9.58549 14.1667 8.00001C14.1667 6.41453 14.1656 5.27571 14.0491 4.40906C13.9345 3.55679 13.7166 3.04298 13.3368 2.66321C12.957 2.28344 12.4432 2.06551 11.5909 1.95092C10.7243 1.83441 9.58547 1.83334 7.99998 1.83334C6.4145 1.83334 5.27569 1.83441 4.40903 1.95092C3.55677 2.06551 3.04295 2.28344 2.66318 2.66321C2.31077 3.01562 2.09824 3.48286 1.97781 4.22688C1.85501 4.98552 1.83615 5.9743 1.8337 7.33424C1.8332 7.61039 1.60894 7.83384 1.3328 7.83334C1.05666 7.83285 0.833205 7.60858 0.833702 7.33244C0.836122 5.98901 0.852879 4.91829 0.990656 4.0671C1.1308 3.20129 1.4038 2.50838 1.95607 1.9561C2.55261 1.35956 3.31263 1.08933 4.27579 0.959841C5.21678 0.833328 6.4228 0.833335 7.96173 0.833344Z" fill="url(#paint0_linear_4640_84)"/>
<path d="M8.33338 4.66668C8.33338 4.39053 8.55723 4.16668 8.83338 4.16668H11.3334C11.6095 4.16668 11.8334 4.39053 11.8334 4.66668V7.16668C11.8334 7.44282 11.6095 7.66668 11.3334 7.66668C11.0572 7.66668 10.8334 7.44282 10.8334 7.16668V5.87378L8.3536 8.35356C8.15833 8.54883 7.84175 8.54883 7.64649 8.35356C7.45123 8.1583 7.45123 7.84172 7.64649 7.64646L10.1263 5.16668H8.83338C8.55723 5.16668 8.33338 4.94282 8.33338 4.66668Z" fill="url(#paint1_linear_4640_84)"/>
<path fill-rule="evenodd" clip-rule="evenodd" d="M3.96538 8.83334C3.36639 8.83332 2.86691 8.83331 2.47039 8.88662C2.05186 8.94289 1.67399 9.06667 1.37035 9.37031C1.0667 9.67396 0.94292 10.0518 0.88665 10.4704C0.83334 10.8669 0.833356 11.3663 0.833375 11.9653V12.0347C0.833356 12.6337 0.83334 13.1331 0.88665 13.5297C0.94292 13.9482 1.0667 14.3261 1.37035 14.6297C1.67399 14.9334 2.05186 15.0571 2.47039 15.1134C2.86691 15.1667 3.36638 15.1667 3.96536 15.1667H4.03471C4.63368 15.1667 5.13318 15.1667 5.5297 15.1134C5.94823 15.0571 6.32609 14.9334 6.62974 14.6297C6.93339 14.3261 7.05717 13.9482 7.11344 13.5297C7.16675 13.1331 7.16673 12.6337 7.16671 12.0347V11.9653C7.16673 11.3664 7.16675 10.8669 7.11344 10.4704C7.05717 10.0518 6.93339 9.67396 6.62974 9.37031C6.32609 9.06667 5.94823 8.94289 5.5297 8.88662C5.13317 8.83331 4.6337 8.83332 4.03471 8.83334H3.96538ZM2.07745 10.0774C2.16433 9.99054 2.296 9.91906 2.60364 9.8777C2.92566 9.83441 3.35737 9.83334 4.00004 9.83334C4.64272 9.83334 5.07442 9.83441 5.39645 9.8777C5.70409 9.91906 5.83575 9.99054 5.92263 10.0774C6.00951 10.1643 6.08099 10.296 6.12235 10.6036C6.16565 10.9256 6.16671 11.3573 6.16671 12C6.16671 12.6427 6.16565 13.0744 6.12235 13.3964C6.08099 13.7041 6.00951 13.8357 5.92263 13.9226C5.83575 14.0095 5.70409 14.081 5.39645 14.1223C5.07442 14.1656 4.64272 14.1667 4.00004 14.1667C3.35737 14.1667 2.92566 14.1656 2.60364 14.1223C2.296 14.081 2.16433 14.0095 2.07745 13.9226C1.99058 13.8357 1.91909 13.7041 1.87773 13.3964C1.83444 13.0744 1.83338 12.6427 1.83338 12C1.83338 11.3573 1.83444 10.9256 1.87773 10.6036C1.91909 10.296 1.99058 10.1643 2.07745 10.0774Z" fill="url(#paint2_linear_4640_84)"/>
</g>
<defs>
<linearGradient id="paint0_linear_4640_84" x1="0.833374" y1="8.00001" x2="15.1667" y2="8.00001" gradientUnits="userSpaceOnUse">
<stop stop-color="#4FA800"/>
<stop offset="1" stop-color="#00844E"/>
</linearGradient>
<linearGradient id="paint1_linear_4640_84" x1="0.833374" y1="8.00001" x2="15.1667" y2="8.00001" gradientUnits="userSpaceOnUse">
<stop stop-color="#4FA800"/>
<stop offset="1" stop-color="#00844E"/>
</linearGradient>
<linearGradient id="paint2_linear_4640_84" x1="0.833374" y1="8.00001" x2="15.1667" y2="8.00001" gradientUnits="userSpaceOnUse">
<stop stop-color="#4FA800"/>
<stop offset="1" stop-color="#00844E"/>
</linearGradient>
<clipPath id="clip0_4640_84">
<rect width="16" height="16" rx="5" fill="white"/>
</clipPath>
</defs>
</svg>
