<svg width="97" height="32" viewBox="0 0 97 32" fill="none" xmlns="http://www.w3.org/2000/svg">
<path d="M0 0H80.7557C89.5922 0 96.7557 7.16344 96.7557 16C96.7557 24.8366 89.5923 32 80.7557 32H0V0Z" fill="#F5FAE9"/>
<path fill-rule="evenodd" clip-rule="evenodd" d="M22.4467 20.3769L28.2935 14.5476C29.1356 13.7081 29.5566 13.2884 29.7783 12.7546C30.0001 12.2208 30.0001 11.6272 30.0001 10.44V9.87277C30.0001 8.04713 30.0001 7.13431 29.4312 6.56715C28.8624 6 27.9468 6 26.1157 6H25.5468C24.356 6 23.7606 6 23.2252 6.2211C22.6898 6.4422 22.2688 6.86195 21.4268 7.70146L15.5799 13.5308C14.596 14.5117 13.9859 15.12 13.7497 15.7075C13.675 15.8931 13.6377 16.0767 13.6377 16.2692C13.6377 17.0713 14.2851 17.7168 15.5799 19.0077L15.7539 19.1812L17.7924 17.1123C18.0832 16.8172 18.558 16.8137 18.8531 17.1044C19.1481 17.3951 19.1516 17.87 18.8609 18.1651L16.8162 20.2403L16.9533 20.3769C18.2481 21.6679 18.8955 22.3133 19.7 22.3133C19.8777 22.3133 20.0478 22.2818 20.2189 22.2188C20.8222 21.9966 21.438 21.3826 22.4467 20.3769ZM25.1935 13.5312C24.435 14.2874 23.2053 14.2874 22.4468 13.5312C21.6883 12.775 21.6883 11.5489 22.4468 10.7927C23.2053 10.0365 24.435 10.0365 25.1935 10.7927C25.952 11.5489 25.952 12.775 25.1935 13.5312Z" fill="url(#paint0_linear_4604_626)"/>
<path d="M17.0343 9.96305L14.4911 12.4986C14.0237 12.9646 13.5949 13.3921 13.2562 13.7786C13.0388 14.0267 12.8215 14.2984 12.6374 14.5985L12.6126 14.5738C12.5656 14.5269 12.542 14.5034 12.5184 14.4805C12.0764 14.0516 11.5564 13.7106 10.9864 13.4758C10.9559 13.4632 10.925 13.451 10.8631 13.4265L10.4845 13.2764C9.97153 13.0732 9.83482 12.4128 10.2251 12.0237C11.3453 10.9068 12.6903 9.56594 13.3394 9.29662C13.9119 9.05911 14.5302 8.98008 15.1266 9.06822C15.6731 9.14898 16.1901 9.42968 17.0343 9.96305Z" fill="url(#paint1_linear_4604_626)"/>
<path d="M21.3767 23.3132C21.5816 23.5212 21.7177 23.6681 21.8408 23.8251C22.0031 24.0322 22.1483 24.2522 22.2748 24.4829C22.4172 24.7426 22.5278 25.02 22.749 25.5748C22.929 26.0265 23.5272 26.1459 23.8746 25.7995L23.9586 25.7157C25.0788 24.5988 26.4237 23.2579 26.6938 22.6108C26.9321 22.04 27.0113 21.4235 26.9229 20.8289C26.8419 20.2841 26.5605 19.7688 26.0256 18.9273L23.474 21.4713C22.9959 21.9479 22.5576 22.385 22.1612 22.7273C21.9236 22.9325 21.6637 23.1376 21.3767 23.3132Z" fill="url(#paint2_linear_4604_626)"/>
<circle cx="23.5" cy="12.5" r="2.5" fill="url(#paint3_linear_4604_626)"/>
<path d="M40.242 11.1C41.11 11.1 41.8613 11.2447 42.496 11.534C43.14 11.8233 43.6347 12.234 43.98 12.766C44.3253 13.298 44.498 13.928 44.498 14.656C44.498 15.3747 44.3253 16.0047 43.98 16.546C43.6347 17.078 43.14 17.4887 42.496 17.778C41.8613 18.058 41.11 18.198 40.242 18.198H38.268V20.9H36V11.1H40.242ZM40.116 16.35C40.7973 16.35 41.3153 16.2053 41.67 15.916C42.0247 15.6173 42.202 15.1973 42.202 14.656C42.202 14.1053 42.0247 13.6853 41.67 13.396C41.3153 13.0973 40.7973 12.948 40.116 12.948H38.268V16.35H40.116Z" fill="url(#paint4_linear_4604_626)"/>
<path d="M49.4772 12.92V19.08L49.5 20.9H47.2092V19.08V12.92V11.1H49.4772V12.92Z" fill="url(#paint5_linear_4604_626)"/>
<path d="M52.8848 11.1H55.1528V19.052H60.0668V20.9H52.8848V11.1Z" fill="url(#paint6_linear_4604_626)"/>
<path d="M65.9159 21.068C64.8986 21.068 63.9793 20.8487 63.1579 20.41C62.3459 19.9713 61.7066 19.3693 61.2399 18.604C60.7826 17.8293 60.5539 16.9613 60.5539 16C60.5539 15.0387 60.7826 14.1753 61.2399 13.41C61.7066 12.6353 62.3459 12.0287 63.1579 11.59C63.9793 11.1513 64.8986 10.932 65.9159 10.932C66.9333 10.932 67.8479 11.1513 68.6599 11.59C69.4719 12.0287 70.1113 12.6353 70.5779 13.41C71.0446 14.1753 71.2779 15.0387 71.2779 16C71.2779 16.9613 71.0446 17.8293 70.5779 18.604C70.1113 19.3693 69.4719 19.9713 68.6599 20.41C67.8479 20.8487 66.9333 21.068 65.9159 21.068ZM65.9159 19.136C66.4946 19.136 67.0173 19.0053 67.4839 18.744C67.9506 18.4733 68.3146 18.1 68.5759 17.624C68.8466 17.148 68.9819 16.6067 68.9819 16C68.9819 15.3933 68.8466 14.852 68.5759 14.376C68.3146 13.9 67.9506 13.5313 67.4839 13.27C67.0173 12.9993 66.4946 12.864 65.9159 12.864C65.3373 12.864 64.8146 12.9993 64.3479 13.27C63.8813 13.5313 63.5126 13.9 63.2419 14.376C62.9806 14.852 62.8499 15.3933 62.8499 16C62.8499 16.6067 62.9806 17.148 63.2419 17.624C63.5126 18.1 63.8813 18.4733 64.3479 18.744C64.8146 19.0053 65.3373 19.136 65.9159 19.136Z" fill="url(#paint7_linear_4604_626)"/>
<path d="M79.9857 13.844C79.1457 13.3587 78.245 13.046 77.2837 12.906V20.9H75.0157V12.906C74.0544 13.046 73.149 13.3587 72.2997 13.844L71.5297 12.15C72.2017 11.7487 72.9297 11.4453 73.7137 11.24C74.4977 11.0347 75.305 10.932 76.1357 10.932C76.9757 10.932 77.7877 11.0347 78.5717 11.24C79.365 11.4453 80.093 11.7487 80.7557 12.15L79.9857 13.844Z" fill="url(#paint8_linear_4604_626)"/>
<defs>
<linearGradient id="paint0_linear_4604_626" x1="13.6377" y1="14.1567" x2="30.0001" y2="14.1567" gradientUnits="userSpaceOnUse">
<stop stop-color="#4FA800"/>
<stop offset="1" stop-color="#00844E"/>
</linearGradient>
<linearGradient id="paint1_linear_4604_626" x1="18.479" y1="9.0332" x2="18.479" y2="26.0002" gradientUnits="userSpaceOnUse">
<stop stop-color="#ECC84E"/>
<stop offset="1" stop-color="#FEEBAB"/>
</linearGradient>
<linearGradient id="paint2_linear_4604_626" x1="18.479" y1="9.0332" x2="18.479" y2="26.0002" gradientUnits="userSpaceOnUse">
<stop stop-color="#ECC84E"/>
<stop offset="1" stop-color="#FEEBAB"/>
</linearGradient>
<linearGradient id="paint3_linear_4604_626" x1="23.5" y1="10" x2="23.5" y2="15" gradientUnits="userSpaceOnUse">
<stop stop-color="#ECC84E"/>
<stop offset="1" stop-color="#FEEBAB"/>
</linearGradient>
<linearGradient id="paint4_linear_4604_626" x1="36" y1="16" x2="80.7557" y2="16" gradientUnits="userSpaceOnUse">
<stop stop-color="#4FA800"/>
<stop offset="1" stop-color="#00844E"/>
</linearGradient>
<linearGradient id="paint5_linear_4604_626" x1="36" y1="16" x2="80.7557" y2="16" gradientUnits="userSpaceOnUse">
<stop stop-color="#4FA800"/>
<stop offset="1" stop-color="#00844E"/>
</linearGradient>
<linearGradient id="paint6_linear_4604_626" x1="36" y1="16" x2="80.7557" y2="16" gradientUnits="userSpaceOnUse">
<stop stop-color="#4FA800"/>
<stop offset="1" stop-color="#00844E"/>
</linearGradient>
<linearGradient id="paint7_linear_4604_626" x1="36" y1="16" x2="80.7557" y2="16" gradientUnits="userSpaceOnUse">
<stop stop-color="#4FA800"/>
<stop offset="1" stop-color="#00844E"/>
</linearGradient>
<linearGradient id="paint8_linear_4604_626" x1="36" y1="16" x2="80.7557" y2="16" gradientUnits="userSpaceOnUse">
<stop stop-color="#4FA800"/>
<stop offset="1" stop-color="#00844E"/>
</linearGradient>
</defs>
</svg>
