<svg width="36" height="36" viewBox="0 0 36 36" fill="none" xmlns="http://www.w3.org/2000/svg">
<rect width="36" height="36" rx="18" fill="#E8E8E8"/>
<path fill-rule="evenodd" clip-rule="evenodd" d="M13.2179 7.99998C13.2456 7.99998 13.2736 7.99998 13.3021 7.99998L13.3365 7.99998C13.6634 7.99996 13.8738 7.99995 14.0794 8.01918C14.9184 8.09763 15.7164 8.41421 16.3801 8.93022H22.186C22.2042 8.93022 22.2222 8.93021 22.2398 8.93021C22.62 8.93015 22.8789 8.9301 23.1065 8.96006C24.6718 9.16614 25.9036 10.3979 26.1097 11.9633C26.1174 12.0223 26.1232 12.0834 26.1274 12.1482C26.3856 12.2658 26.6246 12.418 26.8444 12.6156C26.9359 12.6979 27.0229 12.785 27.1052 12.8765C27.5967 13.4229 27.8066 14.088 27.905 14.8707C28 15.6259 28 16.5805 28 17.7646V19.9129C28 21.6225 28 22.9765 27.8575 24.0363C27.7109 25.1269 27.4019 26.0096 26.7058 26.7058C26.0096 27.4019 25.1269 27.7109 24.0363 27.8575C22.9765 28 21.6225 28 19.9129 28H16.087C14.3775 28 13.0234 28 11.9637 27.8575C10.8731 27.7109 9.99031 27.4019 9.29416 26.7058C8.59801 26.0096 8.28907 25.1269 8.14244 24.0363C7.99996 22.9765 7.99997 21.6225 7.99998 19.9129L7.99998 13.3021C7.99998 13.2736 7.99998 13.2456 7.99998 13.2179C7.99987 12.4775 7.99981 12.0063 8.07659 11.5994C8.41383 9.81195 9.81195 8.41383 11.5994 8.07659C12.0063 7.99981 12.4775 7.99987 13.2179 7.99998ZM24.6487 11.7932C24.4088 11.0259 23.7425 10.4512 22.9243 10.3435C22.7997 10.3271 22.6402 10.3256 22.186 10.3256H17.8245C18.4225 10.92 18.6939 11.1683 19.0016 11.3395C19.2044 11.4524 19.4195 11.5415 19.6427 11.6051C20.0272 11.7147 20.4487 11.7209 21.5613 11.7209L21.9563 11.7209C23.0374 11.7209 23.9272 11.7209 24.6487 11.7932ZM13.3021 9.39533C12.4494 9.39533 12.1197 9.39838 11.8581 9.44775C10.6351 9.67849 9.67849 10.6351 9.44775 11.8581C9.39838 12.1197 9.39533 12.4494 9.39533 13.3021V19.8604C9.39533 21.6342 9.39681 22.8944 9.52534 23.8503C9.65117 24.7862 9.88714 25.3254 10.2808 25.7191C10.6745 26.1128 11.2137 26.3488 12.1496 26.4746C13.1056 26.6031 14.3657 26.6046 16.1395 26.6046H19.8604C21.6342 26.6046 22.8944 26.6031 23.8503 26.4746C24.7862 26.3488 25.3254 26.1128 25.7191 25.7191C26.1128 25.3254 26.3488 24.7862 26.4746 23.8503C26.6031 22.8944 26.6046 21.6342 26.6046 19.8604V17.812C26.6046 16.5693 26.6033 15.7028 26.5206 15.0447C26.4401 14.4041 26.2922 14.0591 26.0678 13.8096C26.0184 13.7547 25.9662 13.7025 25.9113 13.6531C25.6618 13.4287 25.3168 13.2808 24.6762 13.2003C24.0181 13.1176 23.1516 13.1163 21.9089 13.1163H21.5613C21.5267 13.1163 21.4925 13.1163 21.4587 13.1163C20.4839 13.1165 19.8552 13.1166 19.2602 12.947C18.934 12.854 18.6196 12.7238 18.3232 12.5589C17.7826 12.2581 17.3381 11.8135 16.6489 11.124C16.6251 11.1001 16.6009 11.0759 16.5764 11.0515L16.0646 10.5396C15.801 10.2761 15.7002 10.1763 15.5975 10.0911C15.1293 9.70298 14.555 9.46508 13.9495 9.40847C13.8166 9.39604 13.6747 9.39533 13.3021 9.39533ZM18.2325 16.1395C18.2325 15.7542 18.5449 15.4418 18.9302 15.4418H23.5814C23.9667 15.4418 24.279 15.7542 24.279 16.1395C24.279 16.5248 23.9667 16.8372 23.5814 16.8372H18.9302C18.5449 16.8372 18.2325 16.5248 18.2325 16.1395Z" fill="#888888"/>
</svg>
