<svg width="24" height="24" viewBox="0 0 24 24" fill="none" xmlns="http://www.w3.org/2000/svg">
<path fill-rule="evenodd" clip-rule="evenodd" d="M4.81593 11.6009C4.81593 7.85368 7.85365 4.81597 11.6009 4.81597C15.3481 4.81597 18.3858 7.85368 18.3858 11.6009C18.3858 15.3481 15.3481 18.3858 11.6009 18.3858C7.85365 18.3858 4.81593 15.3481 4.81593 11.6009ZM11.6009 3.21951C6.97195 3.21951 3.21948 6.97198 3.21948 11.6009C3.21948 16.2298 6.97195 19.9823 11.6009 19.9823C13.6279 19.9823 15.4868 19.2627 16.9362 18.0651L19.4178 20.5467C19.7295 20.8584 20.2349 20.8584 20.5467 20.5467C20.8584 20.235 20.8584 19.7296 20.5467 19.4178L18.065 16.9362C19.2627 15.4868 19.9822 13.6279 19.9822 11.6009C19.9822 6.97198 16.2298 3.21951 11.6009 3.21951Z" fill="white"/>
<path fill-rule="evenodd" clip-rule="evenodd" d="M11.6009 3.43902C7.09321 3.43902 3.43902 7.09321 3.43902 11.6009C3.43902 16.1086 7.09321 19.7627 11.6009 19.7627C13.575 19.7627 15.3849 19.0622 16.7964 17.8959L16.9503 17.7687L19.573 20.3915C19.799 20.6175 20.1655 20.6175 20.3915 20.3915C20.6175 20.1655 20.6175 19.799 20.3915 19.573L17.7687 16.9503L17.8959 16.7964C19.0622 15.3849 19.7627 13.575 19.7627 11.6009C19.7627 7.09321 16.1086 3.43902 11.6009 3.43902ZM3 11.6009C3 6.85075 6.85075 3 11.6009 3C16.351 3 20.2018 6.85075 20.2018 11.6009C20.2018 13.609 19.5133 15.4568 18.3598 16.9205L20.7019 19.2626C21.0994 19.6601 21.0994 20.3045 20.7019 20.7019C20.3045 21.0994 19.6601 21.0994 19.2626 20.7019L16.9205 18.3598C15.4568 19.5133 13.609 20.2018 11.6009 20.2018C6.85075 20.2018 3 16.351 3 11.6009ZM4.59645 11.6009C4.59645 7.73244 7.73244 4.59645 11.6009 4.59645C15.4693 4.59645 18.6053 7.73244 18.6053 11.6009C18.6053 15.4693 15.4693 18.6053 11.6009 18.6053C7.73244 18.6053 4.59645 15.4693 4.59645 11.6009ZM11.6009 5.03548C7.97491 5.03548 5.03548 7.97491 5.03548 11.6009C5.03548 15.2269 7.97491 18.1663 11.6009 18.1663C15.2269 18.1663 18.1663 15.2269 18.1663 11.6009C18.1663 7.97491 15.2269 5.03548 11.6009 5.03548Z" fill="white"/>
</svg>
