<svg width="36" height="36" viewBox="0 0 36 36" fill="none" xmlns="http://www.w3.org/2000/svg">
<rect width="36" height="36" rx="18" fill="#E8E8E8"/>
<path fill-rule="evenodd" clip-rule="evenodd" d="M16.4815 8H18.5428C20.3358 7.99999 21.7559 7.99997 22.8673 8.14245C24.0112 8.28908 24.937 8.59803 25.6671 9.29418C25.9528 9.56664 25.9528 10.0084 25.6671 10.2808C25.3813 10.5533 24.918 10.5533 24.6323 10.2808C24.2194 9.88716 23.6539 9.65119 22.6723 9.52536C21.6697 9.39683 20.3481 9.39535 18.4878 9.39535H16.5366C14.6763 9.39535 13.3546 9.39683 12.352 9.52536C11.3705 9.65119 10.805 9.88716 10.3921 10.2808C9.97921 10.6745 9.73173 11.2137 9.59977 12.1496C9.46497 13.1056 9.46342 14.3657 9.46342 16.1395V19.8605C9.46342 21.6343 9.46497 22.8944 9.59977 23.8504C9.73173 24.7863 9.97921 25.3255 10.3921 25.7192C10.805 26.1128 11.3705 26.3488 12.352 26.4746C13.3546 26.6032 14.6763 26.6047 16.5366 26.6047H18.4878C20.3481 26.6047 21.6697 26.6032 22.6723 26.4746C23.6539 26.3488 24.2194 26.1128 24.6323 25.7192C25.3113 25.0718 25.5168 24.0659 25.5526 21.7108C25.5584 21.3256 25.8907 21.0178 26.2948 21.0233C26.6989 21.0289 27.0217 21.3457 27.0158 21.731C26.9816 23.9891 26.8283 25.5986 25.6671 26.7058C24.937 27.402 24.0112 27.7109 22.8673 27.8575C21.7559 28 20.3358 28 18.5428 28H16.4816C14.6886 28 13.2685 28 12.1571 27.8575C11.0132 27.7109 10.0874 27.402 9.35731 26.7058C8.6272 26.0097 8.30318 25.1269 8.1494 24.0363C7.99997 22.9766 7.99998 21.6225 8 19.9129V16.0871C7.99998 14.3775 7.99997 13.0234 8.1494 11.9637C8.30318 10.8731 8.6272 9.99033 9.35731 9.29418C10.0874 8.59803 11.0132 8.28908 12.1571 8.14245C13.2685 7.99997 14.6886 7.99999 16.4815 8ZM23.4762 13.3912C24.5111 12.4045 26.189 12.4045 27.2238 13.3912C28.2587 14.378 28.2587 15.9778 27.2238 16.9645L22.5845 21.3881C22.3321 21.6288 22.1614 21.7917 21.9701 21.9339C21.7451 22.1012 21.5016 22.2447 21.2441 22.3617C21.0251 22.4612 20.796 22.534 20.4573 22.6416L18.4245 23.2877C17.9757 23.4304 17.4809 23.319 17.1463 23C16.8118 22.681 16.695 22.2092 16.8446 21.7813L17.5086 19.8821C17.5132 19.8689 17.5177 19.8559 17.5222 19.8431C17.635 19.5201 17.7114 19.3017 17.8157 19.0929C17.9385 18.8473 18.089 18.6151 18.2645 18.4006C18.4136 18.2183 18.5844 18.0554 18.8369 17.8148C18.8469 17.8052 18.8571 17.7955 18.8674 17.7857L23.4762 13.3912ZM26.1891 14.3779C25.7257 13.9361 24.9744 13.9361 24.511 14.3779L24.3337 14.547C24.3433 14.5781 24.3543 14.6113 24.367 14.6461C24.4588 14.8983 24.6329 15.2319 24.9632 15.5468C25.2934 15.8616 25.6433 16.0277 25.9078 16.1152C25.9443 16.1273 25.979 16.1378 26.0117 16.147L26.1891 15.9779C26.6524 15.536 26.6524 14.8197 26.1891 14.3779ZM24.8941 17.2126C24.5839 17.0573 24.2491 16.8392 23.9284 16.5334C23.6077 16.2276 23.379 15.9083 23.216 15.6126L19.9022 18.7724C19.6084 19.0524 19.5054 19.1524 19.4184 19.2588C19.3082 19.3934 19.2138 19.5391 19.1368 19.6932C19.0759 19.815 19.0282 19.9476 18.8969 20.3233L18.5063 21.4404L18.782 21.7033L19.9536 21.3309C20.3477 21.2056 20.4867 21.1602 20.6145 21.1021C20.7761 21.0287 20.9289 20.9387 21.0701 20.8336C21.1816 20.7507 21.2865 20.6524 21.5802 20.3723L24.8941 17.2126ZM12.878 15.2093C12.878 14.824 13.2056 14.5116 13.6098 14.5116H19.9512C20.3553 14.5116 20.6829 14.824 20.6829 15.2093C20.6829 15.5946 20.3553 15.907 19.9512 15.907H13.6098C13.2056 15.907 12.878 15.5946 12.878 15.2093ZM12.878 18.9302C12.878 18.5449 13.2056 18.2326 13.6098 18.2326H16.0488C16.4529 18.2326 16.7805 18.5449 16.7805 18.9302C16.7805 19.3155 16.4529 19.6279 16.0488 19.6279H13.6098C13.2056 19.6279 12.878 19.3155 12.878 18.9302ZM12.878 22.6512C12.878 22.2658 13.2056 21.9535 13.6098 21.9535H15.0732C15.4773 21.9535 15.8049 22.2658 15.8049 22.6512C15.8049 23.0365 15.4773 23.3488 15.0732 23.3488H13.6098C13.2056 23.3488 12.878 23.0365 12.878 22.6512Z" fill="#888888"/>
</svg>
