<svg width="36" height="36" viewBox="0 0 36 36" fill="none" xmlns="http://www.w3.org/2000/svg">
<rect width="36" height="36" rx="18" fill="#E8E8E8"/>
<path fill-rule="evenodd" clip-rule="evenodd" d="M20.948 7.25H23.052C23.9505 7.24997 24.6997 7.24995 25.2945 7.32991C25.9223 7.41432 26.4891 7.59999 26.9445 8.05546C27.4 8.51093 27.5857 9.07773 27.6701 9.70552C27.7501 10.3003 27.75 11.0495 27.75 11.948V27.25H28C28.4142 27.25 28.75 27.5858 28.75 28C28.75 28.4142 28.4142 28.75 28 28.75H8C7.58579 28.75 7.25 28.4142 7.25 28C7.25 27.5858 7.58579 27.25 8 27.25H8.25L8.25 14.948C8.24997 14.0495 8.24994 13.3003 8.32991 12.7055C8.41432 12.0777 8.59999 11.5109 9.05546 11.0555C9.51093 10.6 10.0777 10.4143 10.7055 10.3299C11.3003 10.2499 12.0495 10.25 12.948 10.25L16.278 10.25C16.3294 9.37583 16.4906 8.62032 17.0555 8.05546C17.5109 7.59999 18.0777 7.41432 18.7055 7.32991C19.3003 7.24995 20.0495 7.24997 20.948 7.25ZM17.0068 11.75C17.0055 11.75 17.0043 11.75 17.003 11.75C17.002 11.75 17.001 11.75 17 11.75H13C12.036 11.75 11.3884 11.7516 10.9054 11.8165C10.4439 11.8786 10.2464 11.9858 10.1161 12.1161C9.9858 12.2464 9.87858 12.4439 9.81654 12.9054C9.75159 13.3884 9.75 14.036 9.75 15V27.25H14.25V25C14.25 24.5858 14.5858 24.25 15 24.25C15.4142 24.25 15.75 24.5858 15.75 25V27.25H20.25V15C20.25 14.036 20.2484 13.3884 20.1835 12.9054C20.1214 12.4439 20.0142 12.2464 19.8839 12.1161C19.7536 11.9858 19.5561 11.8786 19.0946 11.8165C18.6127 11.7517 17.9671 11.75 17.0068 11.75ZM21.75 27.25L21.75 14.948C21.75 14.0495 21.7501 13.3003 21.6701 12.7055C21.5857 12.0777 21.4 11.5109 20.9445 11.0555C20.4891 10.6 19.9223 10.4143 19.2945 10.3299C18.8691 10.2727 18.3648 10.2564 17.7834 10.2518C17.8335 9.55219 17.9436 9.28863 18.1161 9.11612C18.2464 8.9858 18.4439 8.87858 18.9054 8.81654C19.3884 8.7516 20.036 8.75 21 8.75H23C23.964 8.75 24.6116 8.7516 25.0946 8.81654C25.5561 8.87858 25.7536 8.9858 25.8839 9.11612C26.0142 9.24644 26.1214 9.44393 26.1835 9.90539C26.2484 10.3884 26.25 11.036 26.25 12V27.25H21.75ZM11.25 14C11.25 13.5858 11.5858 13.25 12 13.25H18C18.4142 13.25 18.75 13.5858 18.75 14C18.75 14.4142 18.4142 14.75 18 14.75H12C11.5858 14.75 11.25 14.4142 11.25 14ZM11.25 17C11.25 16.5858 11.5858 16.25 12 16.25H18C18.4142 16.25 18.75 16.5858 18.75 17C18.75 17.4142 18.4142 17.75 18 17.75H12C11.5858 17.75 11.25 17.4142 11.25 17ZM11.25 20C11.25 19.5858 11.5858 19.25 12 19.25H18C18.4142 19.25 18.75 19.5858 18.75 20C18.75 20.4142 18.4142 20.75 18 20.75H12C11.5858 20.75 11.25 20.4142 11.25 20Z" fill="#888888"/>
</svg>
